# vtk DataFile Version 2.0
, Created by Gmsh 4.12.1 
ASCII
DATASET UNSTRUCTURED_GRID
POINTS 669 double
-1 -9 0
0 -9 1
1 -9 0
-1 9 0
0 9 1
1 9 0
40 9 0
-40 9 0
-40 9 4
40 9 4
40 -9 0
-40 -9 0
-40 -9 4
40 -9 4
-35.6 -4.6 2.6
-35.6 -4.6 1.4
-35.6 -3.4 2.6
-35.6 -3.4 1.4
-34.4 -4.6 1.4
-34.4 -4.6 2.6
-34.4 -3.4 2.6
-34.4 -3.4 1.4
34.4 -4.6 2.6
34.4 -4.6 1.4
34.4 -3.4 2.6
34.4 -3.4 1.4
35.6 -4.6 1.4
35.6 -4.6 2.6
35.6 -3.4 2.6
35.6 -3.4 1.4
-1 -6.428571428571436 0
-1 -3.857142857142873 0
-1 -1.285714285714309 0
-1 1.285714285714255 0
-1 3.857142857142829 0
-1 6.428571428571415 0
0 -6.428571428571436 1
0 -3.857142857142873 1
0 -1.285714285714309 1
0 1.285714285714255 1
0 3.857142857142829 1
0 6.428571428571415 1
1 -6.428571428571436 0
1 -3.857142857142873 0
1 -1.285714285714309 0
1 1.285714285714255 0
1 3.857142857142829 0
1 6.428571428571415 0
37.21428571428572 9 0
34.42857142857144 9 0
31.64285714285717 9 0
28.85714285714289 9 0
26.0714285714286 9 0
23.28571428571431 9 0
20.50000000000002 9 0
17.71428571428573 9 0
14.92857142857144 9 0
12.14285714285716 9 0
9.357142857142868 9 0
6.571428571428577 9 0
3.785714285714292 9 0
-3.785714285714278 9 0
-6.571428571428555 9 0
-9.357142857142833 9 0
-12.14285714285711 9 0
-14.9285714285714 9 0
-17.71428571428569 9 0
-20.49999999999998 9 0
-23.28571428571426 9 0
-26.07142857142856 9 0
-28.85714285714285 9 0
-31.64285714285714 9 0
-34.42857142857142 9 0
-37.21428571428571 9 0
-40 9 1.999999999999999
37.14285714285714 9 4
34.28571428571428 9 4
31.42857142857142 9 4
28.57142857142856 9 4
25.71428571428569 9 4
22.85714285714282 9 4
19.99999999999996 9 4
17.14285714285709 9 4
14.28571428571423 9 4
11.42857142857138 9 4
8.571428571428527 9 4
5.714285714285673 9 4
2.857142857142819 9 4
-3.552713678800501e-14 9 4
-2.85714285714289 9 4
-5.714285714285744 9 4
-8.571428571428605 9 4
-11.42857142857146 9 4
-14.28571428571431 9 4
-17.14285714285717 9 4
-20.00000000000002 9 4
-22.85714285714288 9 4
-25.71428571428572 9 4
-28.57142857142858 9 4
-31.42857142857143 9 4
-34.28571428571429 9 4
-37.14285714285714 9 4
40 9 1.999999999999999
40 -6.428571428571436 0
40 -3.857142857142873 0
40 -1.285714285714309 0
40 1.285714285714255 0
40 3.857142857142829 0
40 6.428571428571415 0
3.785714285714278 -9 0
6.571428571428555 -9 0
9.357142857142833 -9 0
12.14285714285711 -9 0
14.9285714285714 -9 0
17.71428571428569 -9 0
20.49999999999998 -9 0
23.28571428571426 -9 0
26.07142857142856 -9 0
28.85714285714285 -9 0
31.64285714285714 -9 0
34.42857142857142 -9 0
37.21428571428571 -9 0
-37.21428571428572 -9 0
-34.42857142857144 -9 0
-31.64285714285717 -9 0
-28.85714285714289 -9 0
-26.0714285714286 -9 0
-23.28571428571431 -9 0
-20.50000000000002 -9 0
-17.71428571428573 -9 0
-14.92857142857144 -9 0
-12.14285714285716 -9 0
-9.357142857142868 -9 0
-6.571428571428577 -9 0
-3.785714285714292 -9 0
-40 6.428571428571436 0
-40 3.857142857142873 0
-40 1.285714285714309 0
-40 -1.285714285714255 0
-40 -3.857142857142829 0
-40 -6.428571428571415 0
-40 -9 1.999999999999999
-40 6.428571428571436 4
-40 3.857142857142873 4
-40 1.285714285714309 4
-40 -1.285714285714255 4
-40 -3.857142857142829 4
-40 -6.428571428571415 4
-37.14285714285714 -9 4
-34.28571428571428 -9 4
-31.42857142857142 -9 4
-28.57142857142856 -9 4
-25.71428571428569 -9 4
-22.85714285714282 -9 4
-19.99999999999996 -9 4
-17.14285714285709 -9 4
-14.28571428571423 -9 4
-11.42857142857138 -9 4
-8.571428571428527 -9 4
-5.714285714285673 -9 4
-2.857142857142819 -9 4
3.552713678800501e-14 -9 4
2.85714285714289 -9 4
5.714285714285744 -9 4
8.571428571428605 -9 4
11.42857142857146 -9 4
14.28571428571431 -9 4
17.14285714285717 -9 4
20.00000000000002 -9 4
22.85714285714288 -9 4
25.71428571428572 -9 4
28.57142857142858 -9 4
31.42857142857143 -9 4
34.28571428571429 -9 4
37.14285714285714 -9 4
40 -6.428571428571436 4
40 -3.857142857142873 4
40 -1.285714285714309 4
40 1.285714285714255 4
40 3.857142857142829 4
40 6.428571428571415 4
40 -9 1.999999999999999
-0.5 7.714285714285708 0.5
-0.5 5.142857142857121 0.5
-0.4999999999999999 2.571428571428541 0.5000000000000001
-0.4999999999999999 -7.714285714285718 0.5000000000000001
-0.5000000000000001 -5.142857142857154 0.4999999999999999
-0.5 -2.571428571428591 0.5
-0.5000000000000002 -2.664535259100376e-14 0.4999999999999998
0.5 7.714285714285708 0.5
0.5 5.142857142857121 0.5
0.5000000000000001 2.571428571428541 0.4999999999999999
0.5000000000000001 -7.714285714285718 0.4999999999999999
0.5 -2.571428571428591 0.5
0.4999999999999999 -5.142857142857154 0.5000000000000001
0.4999999999999998 -2.664535259100376e-14 0.5000000000000002
-1.518827027729856 9 1.928492848172683
1.882007205325557 9 1.583241656201467
-35.76611941963098 9 1.979901261356901
35.76611941963108 9 1.979901261356869
-32.9669722842242 9 1.985170618389418
32.96697228422423 9 1.985170618389408
-30.15520966641833 9 1.982647484017275
30.15520966641834 9 1.98264748401728
-27.34134446821255 9 1.979038186111735
27.34134446821259 9 1.979038186111721
-24.52712883994019 9 1.975460445984614
24.5271288399402 9 1.975460445984605
-21.71285480665669 9 1.972100550521251
21.7128548066567 9 1.972100550521241
-18.89857103920469 9 1.968989547535856
18.89857103920468 9 1.968989547535852
-38.02615041996792 9 1.976848565480488
38.02615041996795 9 1.976848565480392
3.636980410353523 9 2.146612032107589
-3.712266063911649 9 2.254798468920142
-16.08428564939125 9 1.966132611664144
16.08428564939125 9 1.966132611664136
-13.26999998918423 9 1.963530605345386
13.26999998918424 9 1.963530605345383
-10.45571428391165 9 1.961183672319471
10.45571428391165 9 1.961183672319467
-7.690295736726348 9 1.969563372028378
7.690295736726348 9 1.969563372028373
-5.494798074413318 9 1.644872368189704
5.479740943701678 9 1.623235080827192
0.6440646069476941 9 2.50234690087483
3.557820279845683 -0.2483109516563703 0
37.91189723421483 0.05316790461668075 0
13.53029881629937 -6.934299216949147 0
27.42932930995197 6.529235093986832 0
21.89285714285712 -6.587500660886207 0
16.29711484225363 6.575377452349167 0
30.25 -6.587500660886207 0
10.7285462108979 6.589922814263115 0
21.88107564595215 6.577210418545598 0
32.95479637823226 6.50277050528338 0
7.958946125689038 -6.72845862606129 0
35.76132931895327 -6.407155458792676 0
5.320830199358835 6.566481596679961 0
3.454177679530148 -4.967334844104135 0
37.97550817627491 5.085299359858513 0
7.969672657338092 6.610266788304062 0
9.334813472829754 4.224617024220271 0
12.08740184171101 4.181955074422496 0
10.68896612114288 1.812667247811327 0
13.44378514596955 1.780102115974044 0
12.03375884809985 -0.5891213066684223 0
14.79972743277593 -0.626167241174262 0
9.289367875975017 -0.5571100963630928 0
16.21251939034084 1.752398570585199 0
17.57543692393597 -0.6604765606175687 0
18.9903046426611 1.729726549386959 0
20.35701769094802 -0.569187988635323 0
21.77192059810421 1.724368009404723 0
23.23392466970024 -0.5205122881396662 0
24.56944869668018 1.711416577790976 0
26.03176497846464 -0.6525193248390178 0
27.35307020816791 1.681558454661191 0
28.71465472948153 -0.7452461976329805 0
30.10408289375874 1.62281102673411 0
31.45308116026097 -0.776115705435733 0
32.84148478803367 1.580031307379129 0
19.04232979456661 -2.758495374664627 0
27.47054278951003 -2.878308873513055 0
10.61978286248209 -2.948703516421507 0
7.877143653427319 -2.913635093822145 0
34.05685281776567 -0.8627236331528924 0
32.81326118518353 -3.072447358522362 0
35.51459788353708 -3.156744402740065 0
6.519795496621118 -0.4579562970318445 0
5.133131965800445 -2.646083978405024 0
5.266323562305377 1.990702086792738 0
31.5237810593612 4.033915727436726 0
34.13123263843603 4.027910174295942 0
25.9824271629925 4.090384323163276 0
20.40449467452908 4.129057850567529 0
30.19280250230511 6.531969328624813 0
32.98309302311421 -6.790211529947432 0
35.58850776847479 1.459088013231727 0
30.11078638899846 -3.025302153698758 0
13.50492621619038 6.581985059982274 0
10.69690127729988 -6.850768501526083 0
27.47403948083434 -6.593132000628661 0
24.68371498925535 -6.717135297832727 0
23.397189853645 -4.644898717855373 0
28.75673509781803 4.10331863180685 0
24.65068993461335 6.545364172594521 0
16.2649359048663 -2.942671586086733 0
17.85398054297326 -4.871120719272723 0
13.49356961390802 -2.827556288742225 0
7.945025871772732 1.888374857161657 0
23.20350647900122 4.121426154740066 0
19.08817208953822 6.58056068552712 0
17.63480566229859 4.149158767760414 0
14.86342551646067 4.170162840178932 0
6.631786280298179 4.25914791851662 0
4.058028987575137 4.184674994599495 0
35.8048263383806 6.459388248389152 0
5.194510875727151 -6.928672010123791 0
37.95554298528776 2.592094995103719 0
37.8800116547763 -4.931124952167462 0
37.90558403905671 -2.527370124372444 0
2.829025985035255 -2.600917383404542 0
19.33216899760541 -6.828099082955458 0
20.64868896012898 -4.602986442101777 0
2.976434565945239 2.213984654518589 0
6.473917631912372 -4.817300229711873 0
9.254129519100218 -4.798593177350686 0
14.87108396661693 -4.909584118358048 0
24.65838122581581 -2.671431608304934 0
12.04589612011101 -4.833675242415072 0
3.100741582479296 6.206838066069007 0
16.37173157772534 -6.923850522922562 0
31.62673451894347 -4.937528233348628 0
21.88958869913411 -2.62791873661695 0
33.85827463106473 -4.847584567076796 0
28.85868423973631 -4.946086249613095 0
26.08897263758729 -4.893206267494667 0
38.09401802382396 7.158400478190223 0
2.905981976176015 -7.158400478190267 0
38.17112533760305 -7.153370367906316 0
36.29112358137082 3.92475615817581 0
36.17583848738396 -1.152186313314586 0
-37.91189723421481 -0.05316790461666143 0
-3.557820279845687 0.2483109516563347 0
-13.53029881629937 6.934299216949148 0
-21.89285714285712 6.587500660886207 0
-27.42932930995197 -6.529235093986811 0
-16.29711484225363 -6.575377452349167 0
-30.25 6.587500660886207 0
-10.7285462108979 -6.589922814263115 0
-21.88107564595215 -6.577210418545598 0
-7.958946125689037 6.72845862606129 0
-32.95479637823226 -6.502770505283355 0
-35.84147147479361 6.980899021316142 0
-5.320830199358834 -6.566481596679962 0
-37.9755081762749 -5.085299359858517 0
-3.454177679530152 4.967334844104112 0
-7.969672657338092 -6.610266788304065 0
-9.334813472829754 -4.224617024220272 0
-12.08740184171101 -4.181955074422493 0
-10.68896612114287 -1.812667247811323 0
-13.44378514596954 -1.78010211597404 0
-12.03375884809984 0.5891213066684262 0
-14.79972743277592 0.6261672411742649 0
-9.289367875975014 0.5571100963630986 0
-16.21251939034083 -1.752398570585197 0
-17.57543692393597 0.6604765606175682 0
-18.99030464266109 -1.729726549386958 0
-20.35701769094801 0.5691879886353204 0
-21.7719205981042 -1.724368009404723 0
-23.23392466970023 0.520512288139666 0
-24.56944869668017 -1.711416577790969 0
-26.03176497846462 0.6525193248390281 0
-27.3530702081679 -1.681558454661166 0
-28.71465472948151 0.745246197633004 0
-30.10408289375874 -1.622811026734077 0
-31.45308116026094 0.7761157054357728 0
-32.84148478803365 -1.580031307379077 0
-19.04232979456661 2.758495374664623 0
-27.47054278951002 2.87830887351307 0
-10.61978286248208 2.948703516421509 0
-7.877143653427311 2.913635093822148 0
-34.05685281776564 0.8627236331529474 0
-32.82343349606755 3.100464016474851 0
-35.5379144701165 2.98277576802561 0
-6.519795496621123 0.4579562970318405 0
-5.133131965800444 2.646083978405006 0
-5.266323562305384 -1.990702086792759 0
-31.5237810593612 -4.033915727436679 0
-34.13123263843602 -4.027910174295913 0
-25.9824271629925 -4.090384323163258 0
-20.40449467452908 -4.129057850567529 0
-30.19280250230511 -6.53196932862479 0
-33.03014592308762 6.710996450675784 0
-35.58850776847476 -1.459088013231688 0
-30.13092165441651 2.973287897183908 0
-13.50492621619038 -6.581985059982274 0
-10.69690127729988 6.850768501526083 0
-27.47403948083434 6.593132000628661 0
-24.68371498925535 6.717135297832732 0
-23.39718985364499 4.644898717855373 0
-28.75673509781804 -4.103318631806806 0
-24.65068993461335 -6.545364172594516 0
-16.2649359048663 2.942671586086734 0
-17.85398054297326 4.871120719272723 0
-13.49356961390802 2.827556288742227 0
-7.945025871772735 -1.888374857161663 0
-23.20350647900122 -4.121426154740065 0
-19.08817208953822 -6.58056068552712 0
-17.63480566229858 -4.149158767760412 0
-14.86342551646067 -4.17016284017893 0
-6.631786280298181 -4.259147918516625 0
-4.05802898757514 -4.184674994599519 0
-35.8048263383806 -6.45938824838915 0
-5.194510875727152 6.928672010123784 0
-37.95554298528776 -2.592094995103714 0
-37.53148984033601 5.037777819479154 0
-37.85764552319109 2.39095434665058 0
-2.829025985035257 2.600917383404507 0
-19.33216899760541 6.828099082955458 0
-20.64868896012898 4.602986442101773 0
-2.976434565945242 -2.213984654518625 0
-6.47391763191237 4.817300229711865 0
-9.254129519100212 4.798593177350685 0
-14.87108396661693 4.909584118358048 0
-24.6583812258158 2.671431608304941 0
-12.045896120111 4.833675242415072 0
-3.100741582479295 -6.206838066069005 0
-16.37173157772534 6.923850522922562 0
-31.64131347120621 4.947214637063437 0
-21.8895886991341 2.627918736616949 0
-34.42045808773666 4.983697990081911 0
-28.85868423973632 4.946086249613101 0
-26.08897263758729 4.893206267494687 0
-2.905981976176029 7.158400478190246 0
-38.09401802382396 -7.158400478190223 0
-38.10076250025983 7.165706994329119 0
-36.2911235813708 -3.924756158175796 0
-36.17404388612402 1.129563542728884 0
-40 5.035714285714298 2.028911564625851
-40 2.486899575160351e-14 2
-40 2.571428571428592 2
-40 -2.571428571428539 2
-40 -5.035714285714263 2.028911564625849
-40 -7.071428571428562 2.173469387755093
-40 7.071428571428577 2.173469387755107
37.77307753312574 -2.709560514279738e-14 4
-37.91461604109145 0.007365343561257435 4
24.2857142857143 -6.525641703473042 4
-24.25700496520218 6.329912376556312 4
15.47682536214808 -6.471970765213685 4
7.198261336377028 6.468651456820575 4
-4.285714285714246 -6.525641703473035 4
-12.82850852620216 6.382960152857581 4
-18.95580914205173 -6.531338010456651 4
21.45168470987696 6.519541627827195 4
-1.347858099908167 6.44014301510335 4
4.285714285714317 -6.525641703473035 4
-27.52269881079898 -6.570909512825546 4
30.03030263357008 6.528849912978612 4
-29.97487876584987 6.294127133659472 4
30.05192894741437 -6.670987159566565 4
15.73409947468446 6.512172439920871 4
-18.54271403071701 6.35782650362078 4
-7.114311173907993 6.408101056548226 4
-12.85714285714281 -6.525641703473035 4
10.00000000000003 -6.525641703473035 4
-32.94702154815498 -6.519672631330147 4
-35.58601671436998 6.480154100818904 4
35.58592846243262 -6.48022216980581 4
35.57744785385326 6.4708687015442 4
-37.80747497018095 -5.06525179345349 4
32.83987971063974 6.533629245631201 4
31.46159028594448 4.102797129764712 4
28.65172182951475 4.064119187078791 4
30.09350284587732 1.661125397136948 4
27.28289061330125 1.612728745551112 4
28.62879444859149 -0.7465171423321607 4
31.35531726131823 -1.021330782783877 4
25.88756397471805 -0.8411577237910992 4
24.45439711810306 1.577289559256035 4
23.06628492700333 -0.8960307215268021 4
21.61484748248432 1.544989427177646 4
20.22491235035132 -0.9408417950434584 4
18.7651216884066 1.505688627853822 4
17.37463402523979 -1.016580851927494 4
15.91216316652147 1.462246440065127 4
14.52082435358501 -1.064468279117396 4
13.05737447751645 1.420206903478072 4
11.66540876165971 -1.093658263369301 4
10.20137365897343 1.40128690480532 4
8.809327698725115 -1.129192346540338 4
7.345074061788987 1.365026066816487 4
5.952711497057411 -1.147957155599499 4
4.488805074984822 1.308524703587289 4
3.096019357573703 -1.188531221664681 4
1.64078136214627 1.309439927881051 4
0.2407295449786578 -1.222503037258057 4
-1.198374587186286 1.315779348936567 4
-2.612991821740775 -1.246966958316166 4
-4.081408547366602 1.182464968281574 4
-5.473671250914625 -1.300609036800469 4
-6.938554228591904 1.172537667491953 4
-8.331095353125336 -1.346033700854971 4
-9.79554464929539 1.135977631894667 4
-11.18832639302915 -1.368538726673371 4
-12.65250487714875 1.100626493977964 4
-14.04525594066354 -1.405519392216179 4
-15.50938462949213 1.061234594658516 4
-16.9022281580383 -1.438228502723277 4
-18.3662983551335 1.023568343192982 4
-19.75925309684148 -1.477214352491333 4
-21.22318050770881 0.9830041531348961 4
-22.61538312169378 -1.554155183344532 4
-24.07876506237115 0.9358394858615663 4
-25.46863484314687 -1.553907817221033 4
-26.92803827362484 0.8946218270456532 4
-28.31139091067805 -1.58026747478855 4
-29.78046395126682 0.8425559112455157 4
-31.13446969254568 -1.612996468433418 4
-32.83882555789424 0.93734023781401 4
3.000696600707119 3.866044877240499 4
11.55032780629382 3.959125299516753 4
-33.74505278016995 -1.588851399939271 4
18.94483814969806 -3.617432835831303 4
-1.153563820846489 -3.724658968782757 4
-9.724057382365542 -3.84773317356811 4
27.22977816728214 -2.90943181004546 4
-23.63566139876241 -4.06953571623015 4
13.36789218485018 -3.685194338567999 4
7.416554756206473 -3.601247039404373 4
-15.06637198918301 -3.936894265745571 4
-28.41464912687628 3.353400576459686 4
-29.39090808211181 -4.048764781360824 4
-22.72790444729408 3.571049902113069 4
-17.01394632349156 3.64080792665554 4
-11.29996195376518 3.705863791260354 4
-5.55771592347636 3.708133462575485 4
17.30509616464375 3.959691705810173 4
22.98275589464645 4.02574948151665 4
27.19494692636202 6.504711388560667 4
34.25946201687866 4.100383010216659 4
36.88931096322887 4.070310137601233 4
35.61499358545731 1.416425008803634 4
-32.88675109485641 6.542736027487168 4
-34.28591783024831 4.119139909638477 4
-36.89887928027423 4.080080327453213 4
-35.65649328588117 1.750196172170075 4
-31.36515233231605 3.623971763117086 4
-27.09792193741193 6.156800510986486 4
32.85612066976475 -6.566008872639998 4
34.27062776863154 -4.235234958520551 4
36.89629358797347 -4.099674501463307 4
35.65649874000323 -1.751256849572807 4
31.40850572575473 -4.085920800074537 4
32.76512026997253 1.645713248712248 4
-25.58404730213007 3.540270779837128 4
-21.36953850541778 6.314308403167485 4
27.22783486926036 -6.807058302374097 4
-19.87393036162712 3.648427538647458 4
-15.65537846469211 6.346756834940459 4
-14.15994746246531 3.706374965725069 4
-9.941244140774941 6.377816874845836 4
-8.430782348532141 3.756711128666401 4
-4.222618119952331 6.356383538415365 4
-2.667974759224118 3.854299645528878 4
21.58009948122305 -3.348702408280149 4
20.30151410104318 -5.880367864293508 4
5.842488198576668 3.915791905222181 4
1.703224021877877 -3.683621280041253 4
-20.78191700330008 -4.025067634899268 4
-6.867214378891744 -3.806724533261333 4
18.59348900187598 6.514827924617217 4
7.142857142857175 -6.525641703473037 4
10.27444955249698 -3.679869129487611 4
10.02908618785977 6.505272940336953 4
12.85707759756358 6.525679381108674 4
8.706421385650247 3.943001476536525 4
1.447849825728805 6.510992155690182 4
4.343454088803018 6.460246732495571 4
12.85714285714289 -6.525641703473036 4
16.20769303723024 -3.747845613404404 4
4.559890141432511 -3.642486344177713 4
14.42574177802454 3.947664961544487 4
1.428571428571463 -6.526652840233172 4
24.3490167326956 -3.538551026166304 4
20.14783164341628 3.991523671526635 4
24.35825807866073 6.515340500900976 4
-1.428571428571392 -6.548591105260521 4
-37.87464473996175 -2.557266789267736 4
-35.28437938306919 -3.901368190130792 4
25.82082841009804 4.049989810477371 4
-3.913649090185816 -3.756713527012497 4
0.1670670696983129 3.911802033796454 4
-7.142857142857101 -6.592533571502547 4
-35.92542023548806 -6.776697408852489 4
-10.10006910382187 -6.573594151066716 4
-12.42981388957965 -3.837973185227935 4
-16.10078654147143 -6.468250581012208 4
-17.92772765514767 -3.979498891221384 4
-32.20646787212518 -4.024534323674926 4
-21.59394694860055 -6.628847466404737 4
-24.69784728472034 -6.523653082896983 4
-30.34451605219849 -6.527313541531907 4
-26.50452355503641 -4.05783973088718 4
18.09220433973418 -6.802321942643995 4
33.67065461784022 -0.4204026420390601 4
38.05547641636238 2.125918457852385 4
38.01558857878526 -2.151387118949662 4
-38.09399772144937 2.196099797208345 4
37.84863403803732 6.101436798607381 4
37.84911797798824 -6.122803054788146 4
-37.84911587436777 6.122710178608708 4
29.47833572859668 -2.717389538732705 4
-35.88507540644894 -1.09249000239735 4
33.2723208227096 -2.302829206598167 4
-38.17515046970523 -7.254104126175479 4
22.38898320584951 -5.371389674389055 4
28.66342027258527 -4.744689203751122 4
26.1666054979197 -4.864372066443058 4
-34.4952839508556 0.09812395710589229 4
21.96667088994998 -7.155479848431121 4
40 -5.035714285714298 2.028911564625851
40 -2.486899575160351e-14 2
40 -2.571428571428592 2
40 2.571428571428539 2
40 5.035714285714263 2.028911564625849
40 7.071428571428562 2.173469387755093
40 -7.071428571428577 2.173469387755107
1.518827027729856 -9 1.928492848172683
-1.882007205325557 -9 1.583241656201467
35.76611941963098 -9 1.979901261356901
-35.76611941963108 -9 1.979901261356869
32.9669722842242 -9 1.985170618389418
-32.96697228422423 -9 1.985170618389408
30.15520966641833 -9 1.982647484017275
-30.15520966641834 -9 1.98264748401728
27.34134446821255 -9 1.979038186111735
-27.34134446821259 -9 1.979038186111721
24.52712883994019 -9 1.975460445984614
-24.5271288399402 -9 1.975460445984605
21.71285480665669 -9 1.972100550521251
-21.7128548066567 -9 1.972100550521241
18.89857103920469 -9 1.968989547535856
-18.89857103920468 -9 1.968989547535852
38.02615041996792 -9 1.976848565480488
-38.02615041996795 -9 1.976848565480391
-3.636980410353523 -9 2.146612032107589
3.712266063911649 -9 2.254798468920142
16.08428564939125 -9 1.966132611664144
-16.08428564939125 -9 1.966132611664136
13.26999998918423 -9 1.963530605345386
-13.26999998918424 -9 1.963530605345383
10.45571428391165 -9 1.961183672319471
-10.45571428391165 -9 1.961183672319467
7.690295736726348 -9 1.969563372028378
-7.690295736726341 -9 1.969563372028373
5.494798074413318 -9 1.644872368189704
-5.479740943701678 -9 1.623235080827192
-0.6440646069476941 -9 2.50234690087483
-35.6 -4 2
-35 -4.6 2
-35 -4 2.6
-35 -3.4 2
-35 -4 1.4
-34.4 -4 2
34.4 -4 2
35 -4.6 2
35 -4 2.6
35 -3.4 2
35 -4 1.4
35.6 -4 2
-34.4 -6.971214344089569 2
34.4 -6.882087155350206 2
37.7073186872352 -3.399999999999999 2.000000000000001
-37.68896490404581 -3.4 2
31.93763240509275 -4.896007824538863 1.955848687873404
34.4 -1.390853207073877 2
-34.4 -1.371117579192942 2
-32.38461435665562 -3.4 2
-37.23803878646825 -6.209392756492701 2.000000000000001
-32.62649461795268 -5.709696700075575 2
-35.6 -6.013338587952415 2
32.61469656337576 -2.485016871721299 2
-36.55831537489711 -1.558299185004942 2
36.46003914065177 -1.612981550583592 2
37.42972057852296 -5.512840285629068 2

CELLS 3389 15165
1 0
1 1
1 2
1 3
1 4
1 5
1 6
1 7
1 8
1 9
1 10
1 11
1 12
1 13
1 14
1 15
1 16
1 17
1 18
1 19
1 20
1 21
1 22
1 23
1 24
1 25
1 26
1 27
1 28
1 29
2 0 1
2 1 2
2 0 30
2 30 31
2 31 32
2 32 33
2 33 34
2 34 35
2 35 3
2 1 36
2 36 37
2 37 38
2 38 39
2 39 40
2 40 41
2 41 4
2 3 4
2 2 42
2 42 43
2 43 44
2 44 45
2 45 46
2 46 47
2 47 5
2 4 5
2 6 48
2 48 49
2 49 50
2 50 51
2 51 52
2 52 53
2 53 54
2 54 55
2 55 56
2 56 57
2 57 58
2 58 59
2 59 60
2 60 5
2 3 61
2 61 62
2 62 63
2 63 64
2 64 65
2 65 66
2 66 67
2 67 68
2 68 69
2 69 70
2 70 71
2 71 72
2 72 73
2 73 7
2 7 74
2 74 8
2 9 75
2 75 76
2 76 77
2 77 78
2 78 79
2 79 80
2 80 81
2 81 82
2 82 83
2 83 84
2 84 85
2 85 86
2 86 87
2 87 88
2 88 89
2 89 90
2 90 91
2 91 92
2 92 93
2 93 94
2 94 95
2 95 96
2 96 97
2 97 98
2 98 99
2 99 100
2 100 101
2 101 8
2 6 102
2 102 9
2 10 103
2 103 104
2 104 105
2 105 106
2 106 107
2 107 108
2 108 6
2 2 109
2 109 110
2 110 111
2 111 112
2 112 113
2 113 114
2 114 115
2 115 116
2 116 117
2 117 118
2 118 119
2 119 120
2 120 121
2 121 10
2 11 122
2 122 123
2 123 124
2 124 125
2 125 126
2 126 127
2 127 128
2 128 129
2 129 130
2 130 131
2 131 132
2 132 133
2 133 134
2 134 0
2 7 135
2 135 136
2 136 137
2 137 138
2 138 139
2 139 140
2 140 11
2 11 141
2 141 12
2 8 142
2 142 143
2 143 144
2 144 145
2 145 146
2 146 147
2 147 12
2 12 148
2 148 149
2 149 150
2 150 151
2 151 152
2 152 153
2 153 154
2 154 155
2 155 156
2 156 157
2 157 158
2 158 159
2 159 160
2 160 161
2 161 162
2 162 163
2 163 164
2 164 165
2 165 166
2 166 167
2 167 168
2 168 169
2 169 170
2 170 171
2 171 172
2 172 173
2 173 174
2 174 13
2 13 175
2 175 176
2 176 177
2 177 178
2 178 179
2 179 180
2 180 9
2 10 181
2 181 13
2 15 14
2 14 16
2 17 16
2 15 17
2 15 18
2 18 19
2 14 19
2 16 20
2 19 20
2 17 21
2 21 20
2 18 21
2 23 22
2 22 24
2 25 24
2 23 25
2 23 26
2 26 27
2 22 27
2 24 28
2 27 28
2 25 29
2 29 28
2 26 29
3 0 1 185
3 30 0 185
3 1 36 185
3 4 3 182
3 3 35 182
3 41 4 182
3 31 30 186
3 36 30 185
3 30 36 186
3 32 31 187
3 37 31 186
3 31 37 187
3 33 32 188
3 38 32 187
3 32 38 188
3 34 33 184
3 33 39 184
3 39 33 188
3 35 34 183
3 34 40 183
3 40 34 184
3 35 41 182
3 41 35 183
3 36 37 186
3 37 38 187
3 38 39 188
3 39 40 184
3 40 41 183
3 1 2 192
3 36 1 192
3 2 42 192
3 5 4 189
3 4 41 189
3 47 5 189
3 37 36 194
3 42 36 192
3 36 42 194
3 38 37 193
3 37 43 193
3 43 37 194
3 39 38 195
3 44 38 193
3 38 44 195
3 40 39 191
3 39 45 191
3 45 39 195
3 41 40 190
3 40 46 190
3 46 40 191
3 41 47 189
3 47 41 190
3 42 43 194
3 43 44 193
3 44 45 195
3 45 46 191
3 46 47 190
3 4 3 196
3 3 61 196
3 5 4 197
3 4 196 226
3 197 4 226
3 60 5 197
3 6 48 213
3 102 6 213
3 73 7 212
3 7 74 212
3 74 8 212
3 8 101 212
3 75 9 213
3 9 102 213
3 48 49 199
3 48 199 213
3 49 50 201
3 199 49 201
3 50 51 203
3 201 50 203
3 51 52 205
3 203 51 205
3 52 53 207
3 205 52 207
3 53 54 209
3 207 53 209
3 54 55 211
3 209 54 211
3 55 56 217
3 211 55 217
3 56 57 219
3 217 56 219
3 57 58 221
3 219 57 221
3 58 59 223
3 221 58 223
3 59 60 225
3 223 59 225
3 60 197 214
3 60 214 225
3 61 62 224
3 196 61 215
3 215 61 224
3 62 63 222
3 62 222 224
3 63 64 220
3 63 220 222
3 64 65 218
3 64 218 220
3 65 66 216
3 65 216 218
3 66 67 210
3 66 210 216
3 67 68 208
3 67 208 210
3 68 69 206
3 68 206 208
3 69 70 204
3 69 204 206
3 70 71 202
3 70 202 204
3 71 72 200
3 71 200 202
3 72 73 198
3 72 198 200
3 198 73 212
3 76 75 199
3 199 75 213
3 77 76 201
3 76 199 201
3 78 77 203
3 77 201 203
3 79 78 205
3 78 203 205
3 80 79 207
3 79 205 207
3 81 80 209
3 80 207 209
3 82 81 211
3 81 209 211
3 83 82 217
3 82 211 217
3 84 83 219
3 83 217 219
3 85 84 221
3 84 219 221
3 86 85 223
3 85 221 223
3 87 86 214
3 214 86 225
3 86 223 225
3 88 87 226
3 197 87 214
3 87 197 226
3 89 88 196
3 196 88 226
3 90 89 215
3 89 196 215
3 91 90 222
3 90 215 224
3 222 90 224
3 92 91 220
3 220 91 222
3 93 92 218
3 218 92 220
3 94 93 216
3 216 93 218
3 95 94 210
3 210 94 216
3 96 95 208
3 208 95 210
3 97 96 206
3 206 96 208
3 98 97 204
3 204 97 206
3 99 98 202
3 202 98 204
3 100 99 200
3 200 99 202
3 101 100 198
3 198 100 200
3 101 198 212
3 2 42 320
3 109 2 320
3 47 5 312
3 5 60 312
3 48 6 319
3 6 108 319
3 103 10 321
3 10 121 321
3 42 43 240
3 42 240 320
3 43 44 303
3 240 43 303
3 44 45 227
3 44 227 303
3 45 46 306
3 227 45 306
3 46 47 312
3 46 297 306
3 297 46 312
3 49 48 298
3 298 48 319
3 50 49 236
3 236 49 298
3 51 50 277
3 50 236 277
3 52 51 230
3 230 51 277
3 53 52 287
3 52 230 287
3 54 53 235
3 235 53 287
3 55 54 293
3 54 235 293
3 56 55 232
3 232 55 293
3 57 56 281
3 56 232 281
3 58 57 234
3 234 57 281
3 59 58 242
3 58 234 242
3 60 59 239
3 239 59 242
3 60 239 312
3 104 103 301
3 301 103 321
3 105 104 302
3 104 301 302
3 106 105 228
3 228 105 302
3 107 106 300
3 106 228 300
3 108 107 241
3 241 107 300
3 108 241 319
3 110 109 299
3 299 109 320
3 111 110 237
3 237 110 299
3 112 111 282
3 111 237 282
3 113 112 229
3 229 112 282
3 114 113 313
3 113 229 313
3 115 114 304
3 304 114 313
3 116 115 231
3 231 115 304
3 117 116 284
3 116 231 284
3 118 117 283
3 283 117 284
3 119 118 233
3 233 118 283
3 120 119 278
3 119 233 278
3 121 120 238
3 238 120 278
3 121 238 321
3 227 270 271
3 270 227 272
3 227 271 303
3 272 227 306
3 228 279 300
3 279 228 323
3 228 302 323
3 229 282 311
3 309 229 311
3 229 309 313
3 275 230 286
3 230 275 287
3 230 277 286
3 284 231 285
3 285 231 305
3 231 304 305
3 281 232 295
3 232 293 294
3 232 294 295
3 278 233 314
3 233 283 317
3 314 233 317
3 242 234 243
3 243 234 244
3 244 234 281
3 276 235 292
3 235 276 293
3 235 287 292
3 273 236 274
3 236 273 277
3 274 236 298
3 282 237 308
3 237 299 307
3 237 307 308
3 238 269 301
3 269 238 316
3 238 278 316
3 238 301 321
3 239 242 296
3 239 296 297
3 239 297 312
3 271 240 303
3 240 271 307
3 299 240 307
3 240 299 320
3 241 298 319
3 298 241 322
3 241 300 322
3 242 243 296
3 243 244 245
3 243 245 291
3 243 291 296
3 245 244 246
3 246 244 295
3 244 281 295
3 245 246 247
3 245 247 249
3 245 249 291
3 247 246 248
3 248 246 250
3 250 246 295
3 247 248 290
3 249 247 265
3 265 247 290
3 248 250 251
3 248 251 288
3 248 288 290
3 249 265 266
3 249 266 270
3 249 270 291
3 251 250 252
3 252 250 294
3 294 250 295
3 251 252 253
3 251 253 263
3 251 263 288
3 253 252 254
3 254 252 276
3 276 252 294
3 253 254 255
3 253 255 315
3 263 253 315
3 255 254 256
3 256 254 292
3 254 276 292
3 255 256 257
3 255 257 310
3 255 310 315
3 257 256 258
3 258 256 275
3 275 256 292
3 257 258 259
3 257 259 264
3 257 264 310
3 259 258 260
3 260 258 286
3 258 275 286
3 259 260 261
3 259 261 280
3 264 259 280
3 261 260 262
3 262 260 273
3 273 260 286
3 261 262 267
3 261 267 268
3 261 268 280
3 267 262 279
3 262 273 274
3 262 274 279
3 288 263 289
3 289 263 305
3 305 263 315
3 264 280 317
3 310 264 318
3 264 317 318
3 266 265 308
3 265 290 311
3 308 265 311
3 270 266 271
3 271 266 307
3 307 266 308
3 268 267 269
3 269 267 323
3 267 279 323
3 268 269 316
3 280 268 314
3 314 268 316
3 301 269 302
3 302 269 323
3 270 272 291
3 291 272 296
3 296 272 297
3 297 272 306
3 277 273 286
3 279 274 322
3 274 298 322
3 287 275 292
3 293 276 294
3 278 314 316
3 300 279 322
3 280 314 317
3 282 308 311
3 283 284 318
3 317 283 318
3 284 285 318
3 285 305 315
3 310 285 315
3 285 310 318
3 288 289 309
3 290 288 309
3 304 289 305
3 289 304 313
3 309 289 313
3 290 309 311
3 30 0 409
3 0 134 409
3 3 35 416
3 61 3 416
3 7 73 418
3 135 7 418
3 122 11 417
3 11 140 417
3 31 30 409
3 32 31 403
3 31 394 403
3 394 31 409
3 33 32 325
3 325 32 403
3 34 33 400
3 33 325 400
3 35 34 338
3 338 34 400
3 35 338 416
3 62 61 396
3 396 61 416
3 63 62 333
3 333 62 396
3 64 63 379
3 63 333 379
3 65 64 326
3 326 64 379
3 66 65 410
3 65 326 410
3 67 66 401
3 401 66 410
3 68 67 327
3 327 67 401
3 69 68 381
3 68 327 381
3 70 69 380
3 380 69 381
3 71 70 330
3 330 70 380
3 72 71 375
3 71 330 375
3 73 72 335
3 335 72 375
3 73 335 418
3 123 122 395
3 395 122 417
3 124 123 334
3 334 123 395
3 125 124 374
3 124 334 374
3 126 125 328
3 328 125 374
3 127 126 384
3 126 328 384
3 128 127 332
3 332 127 384
3 129 128 390
3 128 332 390
3 130 129 329
3 329 129 390
3 131 130 378
3 130 329 378
3 132 131 331
3 331 131 378
3 133 132 339
3 132 331 339
3 134 133 336
3 336 133 339
3 134 336 409
3 136 135 398
3 398 135 418
3 137 136 399
3 136 398 399
3 138 137 324
3 324 137 399
3 139 138 397
3 138 324 397
3 140 139 337
3 337 139 397
3 140 337 417
3 324 376 397
3 376 324 420
3 324 399 420
3 325 367 368
3 367 325 369
3 325 368 400
3 369 325 403
3 326 379 408
3 406 326 408
3 326 406 410
3 381 327 382
3 382 327 402
3 327 401 402
3 372 328 383
3 328 372 384
3 328 374 383
3 378 329 392
3 329 390 391
3 329 391 392
3 375 330 411
3 330 380 414
3 411 330 414
3 339 331 340
3 340 331 341
3 341 331 378
3 373 332 389
3 332 373 390
3 332 384 389
3 379 333 405
3 333 396 404
3 333 404 405
3 370 334 371
3 334 370 374
3 371 334 395
3 335 375 413
3 398 335 413
3 335 398 418
3 336 339 393
3 336 393 394
3 336 394 409
3 337 395 417
3 395 337 419
3 337 397 419
3 368 338 400
3 338 368 404
3 396 338 404
3 338 396 416
3 339 340 393
3 340 341 342
3 340 342 388
3 340 388 393
3 342 341 343
3 343 341 392
3 341 378 392
3 342 343 344
3 342 344 346
3 342 346 388
3 344 343 345
3 345 343 347
3 347 343 392
3 344 345 387
3 346 344 362
3 362 344 387
3 345 347 348
3 345 348 385
3 345 385 387
3 346 362 363
3 346 363 367
3 346 367 388
3 348 347 349
3 349 347 391
3 391 347 392
3 348 349 350
3 348 350 360
3 348 360 385
3 350 349 351
3 351 349 373
3 373 349 391
3 350 351 352
3 350 352 412
3 360 350 412
3 352 351 353
3 353 351 389
3 351 373 389
3 352 353 354
3 352 354 407
3 352 407 412
3 354 353 355
3 355 353 372
3 372 353 389
3 354 355 356
3 354 356 361
3 354 361 407
3 356 355 357
3 357 355 383
3 355 372 383
3 356 357 358
3 356 358 377
3 361 356 377
3 358 357 359
3 359 357 370
3 370 357 383
3 358 359 364
3 358 364 365
3 358 365 377
3 364 359 376
3 359 370 371
3 359 371 376
3 385 360 386
3 386 360 402
3 402 360 412
3 361 377 414
3 407 361 415
3 361 414 415
3 363 362 405
3 362 387 408
3 405 362 408
3 367 363 368
3 368 363 404
3 404 363 405
3 365 364 366
3 366 364 420
3 364 376 420
3 365 366 413
3 377 365 411
3 411 365 413
3 398 366 399
3 366 398 413
3 399 366 420
3 367 369 388
3 388 369 393
3 393 369 394
3 394 369 403
3 374 370 383
3 376 371 419
3 371 395 419
3 384 372 389
3 390 373 391
3 375 411 413
3 397 376 419
3 377 411 414
3 379 405 408
3 380 381 415
3 414 380 415
3 381 382 415
3 382 402 412
3 407 382 412
3 382 407 415
3 385 386 406
3 387 385 406
3 401 386 402
3 386 401 410
3 406 386 410
3 387 406 408
3 74 7 427
3 7 135 427
3 8 74 427
3 142 8 427
3 140 11 426
3 11 141 426
3 141 12 426
3 12 147 426
3 135 136 421
3 135 421 427
3 136 137 423
3 421 136 423
3 137 138 422
3 137 422 423
3 138 139 424
3 422 138 424
3 139 140 425
3 424 139 425
3 425 140 426
3 143 142 421
3 421 142 427
3 144 143 423
3 143 421 423
3 145 144 422
3 422 144 423
3 146 145 424
3 145 422 424
3 147 146 425
3 146 424 425
3 147 425 426
3 8 594 101
3 142 594 8
3 75 592 9
3 9 592 180
3 12 598 147
3 148 598 12
3 13 593 174
3 175 593 13
3 76 452 75
3 452 592 75
3 77 454 76
3 76 454 452
3 78 441 77
3 441 454 77
3 79 522 78
3 78 522 441
3 80 569 79
3 79 569 522
3 81 437 80
3 437 569 80
3 82 554 81
3 81 554 437
3 83 444 82
3 444 554 82
3 84 558 83
3 83 558 444
3 85 557 84
3 557 558 84
3 86 433 85
3 433 557 85
3 87 561 86
3 86 561 433
3 88 560 87
3 560 561 87
3 89 438 88
3 438 560 88
3 90 546 89
3 89 546 438
3 91 446 90
3 446 546 90
3 92 544 91
3 91 544 446
3 93 435 92
3 435 544 92
3 94 542 93
3 93 542 435
3 95 445 94
3 445 542 94
3 96 539 95
3 95 539 445
3 97 431 96
3 431 539 96
3 98 531 97
3 97 531 431
3 99 442 98
3 442 531 98
3 100 526 99
3 99 526 442
3 101 450 100
3 450 526 100
3 101 594 450
3 143 594 142
3 144 591 143
3 143 591 528
3 528 594 143
3 145 429 144
3 429 591 144
3 146 571 145
3 145 571 429
3 147 453 146
3 453 571 146
3 147 598 453
3 149 577 148
3 577 598 148
3 150 449 149
3 449 577 149
3 151 585 150
3 150 585 449
3 152 440 151
3 440 585 151
3 153 584 152
3 152 584 440
3 154 583 153
3 583 584 153
3 155 436 154
3 436 583 154
3 156 580 155
3 155 580 436
3 157 447 156
3 447 580 156
3 158 578 157
3 157 578 447
3 159 576 158
3 576 578 158
3 160 434 159
3 434 576 159
3 161 570 160
3 160 570 434
3 162 566 161
3 566 570 161
3 163 439 162
3 439 566 162
3 164 555 163
3 163 555 439
3 165 448 164
3 448 555 164
3 166 562 165
3 165 562 448
3 167 432 166
3 432 562 166
3 168 587 167
3 167 587 432
3 169 603 168
3 549 587 168
3 168 603 549
3 170 430 169
3 430 603 169
3 171 540 170
3 170 540 430
3 172 443 171
3 443 540 171
3 173 532 172
3 172 532 443
3 174 451 173
3 451 532 173
3 174 593 451
3 176 593 175
3 177 590 176
3 176 590 534
3 534 593 176
3 178 428 177
3 428 590 177
3 179 589 178
3 178 589 428
3 180 592 179
3 524 589 179
3 179 592 524
3 525 535 428
3 428 589 525
3 535 590 428
3 529 591 429
3 429 596 529
3 571 596 429
3 540 601 430
3 567 599 430
3 430 601 567
3 599 603 430
3 431 538 516
3 516 539 431
3 531 538 431
3 511 562 432
3 432 563 511
3 432 587 563
3 550 559 433
3 433 561 550
3 433 559 557
3 434 574 553
3 553 576 434
3 570 574 434
3 435 543 518
3 518 544 435
3 542 543 435
3 436 581 552
3 552 583 436
3 580 581 436
3 437 568 521
3 521 569 437
3 554 568 437
3 546 547 438
3 547 575 438
3 438 575 560
3 439 564 551
3 551 566 439
3 555 564 439
3 515 585 440
3 440 586 515
3 584 586 440
3 441 455 454
3 441 456 455
3 441 522 456
3 442 530 514
3 514 531 442
3 526 530 442
3 532 536 443
3 536 600 443
3 443 600 540
3 520 554 444
3 444 565 520
3 558 565 444
3 445 541 517
3 517 542 445
3 539 541 445
3 446 545 519
3 519 546 446
3 544 545 446
3 447 579 513
3 513 580 447
3 578 579 447
3 512 555 448
3 448 556 512
3 448 562 556
3 572 577 449
3 449 582 572
3 449 585 582
3 450 527 526
3 450 528 527
3 450 594 528
3 451 533 532
3 451 534 533
3 451 593 534
3 454 523 452
3 523 524 452
3 524 592 452
3 453 572 571
3 453 577 572
3 453 598 577
3 455 523 454
3 456 457 455
3 457 537 455
3 455 537 523
3 456 458 457
3 456 573 458
3 522 573 456
3 458 459 457
3 459 460 457
3 460 537 457
3 458 461 459
3 458 462 461
3 458 573 462
3 459 595 460
3 461 509 459
3 509 595 459
3 460 595 536
3 536 597 460
3 460 588 537
3 460 597 588
3 462 463 461
3 463 567 461
3 461 567 509
3 462 464 463
3 462 521 464
3 462 573 521
3 464 465 463
3 465 548 463
3 548 567 463
3 464 466 465
3 464 568 466
3 521 568 464
3 466 467 465
3 467 506 465
3 506 548 465
3 466 468 467
3 466 520 468
3 466 568 520
3 468 469 467
3 469 563 467
3 467 563 506
3 468 470 469
3 468 565 470
3 520 565 468
3 470 471 469
3 471 511 469
3 511 563 469
3 470 472 471
3 470 504 472
3 470 565 504
3 472 473 471
3 473 556 471
3 471 556 511
3 472 474 473
3 472 559 474
3 504 559 472
3 474 475 473
3 475 512 473
3 512 556 473
3 474 476 475
3 474 550 476
3 474 559 550
3 476 477 475
3 477 564 475
3 475 564 512
3 476 478 477
3 476 503 478
3 476 550 503
3 478 479 477
3 479 551 477
3 551 564 477
3 478 480 479
3 478 575 480
3 503 575 478
3 480 481 479
3 481 507 479
3 507 551 479
3 480 482 481
3 480 547 482
3 480 575 547
3 482 483 481
3 483 574 481
3 481 574 507
3 482 484 483
3 482 519 484
3 482 547 519
3 484 485 483
3 485 553 483
3 553 574 483
3 484 486 485
3 484 545 486
3 519 545 484
3 486 487 485
3 487 508 485
3 508 553 485
3 486 488 487
3 486 518 488
3 486 545 518
3 488 489 487
3 489 579 487
3 487 579 508
3 488 490 489
3 488 543 490
3 518 543 488
3 490 491 489
3 491 513 489
3 513 579 489
3 490 492 491
3 490 517 492
3 490 543 517
3 492 493 491
3 493 581 491
3 491 581 513
3 492 494 493
3 492 541 494
3 517 541 492
3 494 495 493
3 495 552 493
3 552 581 493
3 494 496 495
3 494 516 496
3 494 541 516
3 496 497 495
3 497 510 495
3 510 552 495
3 496 498 497
3 496 538 498
3 516 538 496
3 498 499 497
3 499 586 497
3 497 586 510
3 498 500 499
3 498 514 500
3 498 538 514
3 500 501 499
3 501 515 499
3 515 586 499
3 500 502 501
3 500 530 502
3 514 530 500
3 502 505 501
3 505 582 501
3 501 582 515
3 502 602 505
3 527 529 502
3 502 530 527
3 529 602 502
3 550 561 503
3 503 561 560
3 560 575 503
3 504 558 557
3 557 559 504
3 504 565 558
3 572 582 505
3 505 596 572
3 505 602 596
3 506 549 548
3 506 587 549
3 563 587 506
3 507 566 551
3 507 570 566
3 507 574 570
3 508 576 553
3 508 578 576
3 508 579 578
3 567 601 509
3 509 600 595
3 509 601 600
3 510 583 552
3 510 584 583
3 510 586 584
3 556 562 511
3 512 564 555
3 513 581 580
3 514 538 531
3 582 585 515
3 516 541 539
3 517 543 542
3 518 545 544
3 519 547 546
3 520 568 554
3 521 573 569
3 569 573 522
3 523 525 524
3 523 537 525
3 525 589 524
3 525 588 535
3 537 588 525
3 527 530 526
3 528 529 527
3 528 591 529
3 596 602 529
3 533 536 532
3 534 535 533
3 535 597 533
3 533 597 536
3 534 590 535
3 588 597 535
3 595 600 536
3 600 601 540
3 549 599 548
3 548 599 567
3 549 603 599
3 572 596 571
3 6 102 609
3 108 6 609
3 102 9 609
3 9 180 609
3 10 103 610
3 181 10 610
3 175 13 610
3 13 181 610
3 103 104 604
3 103 604 610
3 104 105 606
3 604 104 606
3 105 106 605
3 105 605 606
3 106 107 607
3 605 106 607
3 107 108 608
3 607 107 608
3 608 108 609
3 176 175 604
3 604 175 610
3 177 176 606
3 176 604 606
3 178 177 605
3 605 177 606
3 179 178 607
3 178 605 607
3 180 179 608
3 179 607 608
3 180 608 609
3 0 1 612
3 134 0 612
3 1 2 611
3 1 611 641
3 612 1 641
3 2 109 611
3 121 10 627
3 10 181 627
3 11 122 628
3 141 11 628
3 12 141 628
3 148 12 628
3 13 174 627
3 181 13 627
3 109 110 639
3 611 109 630
3 630 109 639
3 110 111 637
3 110 637 639
3 111 112 635
3 111 635 637
3 112 113 633
3 112 633 635
3 113 114 631
3 113 631 633
3 114 115 625
3 114 625 631
3 115 116 623
3 115 623 625
3 116 117 621
3 116 621 623
3 117 118 619
3 117 619 621
3 118 119 617
3 118 617 619
3 119 120 615
3 119 615 617
3 120 121 613
3 120 613 615
3 613 121 627
3 122 123 614
3 122 614 628
3 123 124 616
3 614 123 616
3 124 125 618
3 616 124 618
3 125 126 620
3 618 125 620
3 126 127 622
3 620 126 622
3 127 128 624
3 622 127 624
3 128 129 626
3 624 128 626
3 129 130 632
3 626 129 632
3 130 131 634
3 632 130 634
3 131 132 636
3 634 131 636
3 132 133 638
3 636 132 638
3 133 134 640
3 638 133 640
3 134 612 629
3 134 629 640
3 149 148 614
3 614 148 628
3 150 149 616
3 149 614 616
3 151 150 618
3 150 616 618
3 152 151 620
3 151 618 620
3 153 152 622
3 152 620 622
3 154 153 624
3 153 622 624
3 155 154 626
3 154 624 626
3 156 155 632
3 155 626 632
3 157 156 634
3 156 632 634
3 158 157 636
3 157 634 636
3 159 158 638
3 158 636 638
3 160 159 629
3 629 159 640
3 159 638 640
3 161 160 641
3 612 160 629
3 160 612 641
3 162 161 611
3 611 161 641
3 163 162 630
3 162 611 630
3 164 163 637
3 163 630 639
3 637 163 639
3 165 164 635
3 635 164 637
3 166 165 633
3 633 165 635
3 167 166 631
3 631 166 633
3 168 167 625
3 625 167 631
3 169 168 623
3 623 168 625
3 170 169 621
3 621 169 623
3 171 170 619
3 619 170 621
3 172 171 617
3 617 171 619
3 173 172 615
3 615 172 617
3 174 173 613
3 613 173 615
3 174 613 627
3 15 642 14
3 14 642 16
3 17 642 15
3 16 642 17
3 14 643 15
3 19 643 14
3 15 643 18
3 18 643 19
3 14 16 644
3 19 14 644
3 16 20 644
3 20 19 644
3 16 17 645
3 20 16 645
3 17 21 645
3 21 20 645
3 15 646 17
3 18 646 15
3 17 646 21
3 21 646 18
3 18 19 647
3 21 18 647
3 19 20 647
3 20 21 647
3 23 648 22
3 22 648 24
3 25 648 23
3 24 648 25
3 22 649 23
3 27 649 22
3 23 649 26
3 26 649 27
3 22 24 650
3 27 22 650
3 24 28 650
3 28 27 650
3 24 25 651
3 28 24 651
3 25 29 651
3 29 28 651
3 23 652 25
3 26 652 23
3 25 652 29
3 29 652 26
3 26 27 653
3 29 26 653
3 27 28 653
3 28 29 653
4 642 15 14 657
4 649 26 27 655
4 303 477 44 193
4 643 18 19 664
4 477 38 44 193
4 480 325 188 481
4 477 44 38 195
4 400 184 547 480
4 325 188 33 480
4 184 400 33 480
4 195 478 477 227
4 479 38 477 193
4 191 503 478 306
4 195 477 44 227
4 338 183 35 438
4 184 34 400 547
4 438 338 183 547
4 479 477 38 195
4 188 39 33 480
4 184 33 39 480
4 195 45 478 227
4 183 34 40 547
4 40 34 184 547
4 457 260 261 259
4 560 41 47 190
4 191 46 503 306
4 258 458 456 275
4 365 366 364 529
4 259 459 258 257
4 256 458 462 257
4 277 455 441 286
4 256 258 458 257
4 256 462 573 292
4 275 230 456 286
4 40 503 575 191
4 32 188 325 481
4 286 277 455 273
4 455 456 441 286
4 456 258 275 286
4 258 459 458 257
4 457 459 458 258
4 34 183 338 547
4 236 455 277 273
4 573 456 458 275
4 22 24 648 658
4 648 25 23 658
4 575 503 40 190
4 455 236 277 454
4 286 455 457 273
4 279 300 589 228
4 259 460 595 280
4 324 420 399 591
4 537 260 262 261
4 275 573 287 292
4 456 522 230 275
4 230 441 456 286
4 457 260 286 273
4 403 187 32 481
4 279 589 428 228
4 458 462 573 256
4 457 456 455 286
4 504 244 246 245
4 291 243 559 245
4 573 569 287 292
4 183 41 35 438
4 252 568 464 254
4 503 40 46 191
4 477 479 478 195
4 38 32 187 481
4 457 458 456 258
4 503 46 40 190
4 275 256 573 292
4 466 468 250 251
4 441 454 455 277
4 649 27 22 655
4 23 26 649 655
4 460 457 261 259
4 521 573 462 292
4 389 384 332 584
4 343 344 345 489
4 236 454 455 274
4 273 236 455 274
4 254 252 568 276
4 287 522 573 275
4 462 256 257 255
4 188 32 38 481
4 550 296 291 272
4 522 456 573 275
4 600 601 318 283
4 276 235 521 292
4 441 230 277 286
4 248 250 468 251
4 278 233 532 658
4 257 259 459 264
4 261 659 588 665
4 520 294 252 250
4 565 295 250 246
4 345 348 347 490
4 547 184 40 480
4 252 466 520 250
4 273 537 260 262
4 296 242 559 243
4 521 462 464 254
4 456 522 441 230
4 250 252 466 251
4 457 460 459 259
4 559 550 296 291
4 537 457 260 261
4 462 464 254 255
4 294 293 568 276
4 520 232 294 295
4 642 17 15 657
4 14 16 642 657
4 243 504 559 245
4 344 343 487 489
4 235 521 437 276
4 464 466 252 253
4 246 470 504 245
4 466 252 253 251
4 254 568 521 276
4 372 328 384 584
4 521 464 568 254
4 503 560 312 190
4 346 344 342 487
4 235 569 521 292
4 287 230 522 275
4 246 468 470 248
4 253 254 464 255
4 487 342 346 485
4 324 420 591 429
4 462 254 256 255
4 468 565 250 246
4 602 420 660 666
4 291 559 472 245
4 281 565 244 295
4 29 25 651 659
4 24 28 651 659
4 422 324 399 591
4 601 567 318 285
4 504 234 244 243
4 470 246 248 247
4 454 523 455 274
4 293 568 554 294
4 490 347 345 489
4 464 252 254 253
4 303 551 477 193
4 464 463 253 255
4 264 280 595 317
4 276 521 254 292
4 465 466 253 251
4 259 261 460 280
4 573 569 522 287
4 317 443 233 658
4 242 559 433 296
4 244 565 504 246
4 569 573 521 292
4 257 459 509 264
4 568 520 294 252
4 249 245 472 247
4 248 468 467 251
4 182 35 41 196
4 192 42 36 611
4 595 459 460 259
4 390 329 391 436
4 187 403 507 481
4 520 444 232 295
4 532 233 443 658
4 235 287 569 292
4 364 602 420 660
4 470 472 245 247
4 383 374 328 440
4 191 478 45 306
4 246 250 468 248
4 455 537 273 274
4 295 520 565 250
4 260 457 537 273
4 464 466 568 252
4 279 525 262 659
4 399 423 422 591
4 488 345 344 489
4 504 557 234 243
4 274 322 523 279
4 461 462 458 257
4 520 568 466 252
4 293 437 568 276
4 344 346 486 487
4 457 455 537 273
4 242 557 559 243
4 537 273 274 262
4 595 600 264 317
4 400 325 33 480
4 602 529 420 666
4 420 364 529 602
4 565 558 281 244
4 595 459 259 264
4 291 474 550 272
4 607 605 589 228
4 547 368 400 482
4 317 600 264 318
4 329 392 391 580
4 472 474 291 249
4 385 360 348 492
4 252 294 568 276
4 537 262 525 659
4 297 476 306 272
4 472 559 504 245
4 328 372 586 584
4 232 554 520 294
4 257 461 462 255
4 354 407 361 538
4 521 437 569 235
4 567 601 430 285
4 575 503 478 191
4 509 257 264 310
4 595 259 280 264
4 300 607 589 228
4 468 565 520 250
4 318 317 600 283
4 310 264 509 318
4 39 45 478 195
4 234 558 504 244
4 468 466 467 251
4 444 565 281 295
4 391 347 349 491
4 467 248 251 288
4 464 462 463 255
4 459 461 458 257
4 470 504 565 246
4 550 559 474 291
4 348 350 349 492
4 464 463 465 253
4 503 575 560 190
4 295 294 520 250
4 454 203 201 277
4 487 488 344 489
4 245 246 470 247
4 591 422 324 429
4 521 568 437 276
4 293 235 437 276
4 478 45 39 191
4 615 617 532 233
4 236 298 452 274
4 338 368 400 547
4 278 615 532 233
4 492 348 385 490
4 540 430 601 284
4 466 464 465 253
4 387 385 345 490
4 364 365 529 502
4 548 465 315 263
4 490 348 347 491
4 537 455 523 274
4 342 388 346 485
4 377 365 358 530
4 588 537 525 659
4 374 383 515 440
4 457 537 460 261
4 601 600 540 283
4 393 340 339 553
4 239 433 550 296
4 466 468 520 250
4 329 378 392 580
4 591 420 399 529
4 472 471 249 247
4 205 203 441 230
4 232 293 554 294
4 495 389 351 552
4 568 554 437 293
4 248 469 470 247
4 344 343 342 487
4 480 400 325 482
4 382 402 327 539
4 595 280 460 665
4 428 525 589 279
4 443 600 317 283
4 485 388 367 483
4 525 523 322 279
4 346 486 487 485
4 498 354 361 538
4 466 465 467 251
4 412 350 360 494
4 31 187 403 507
4 362 387 344 488
4 565 244 295 246
4 243 244 504 245
4 383 355 499 586
4 363 346 484 486
4 277 201 454 236
4 474 291 249 270
4 349 348 492 491
4 281 232 444 295
4 270 473 475 266
4 354 356 355 498
4 529 591 420 429
4 352 354 353 496
4 194 566 42 240
4 454 441 203 277
4 391 349 373 581
4 428 279 228 667
4 580 391 329 436
4 486 362 344 488
4 352 412 407 496
4 350 352 351 494
4 484 346 367 485
4 388 367 346 485
4 522 207 205 287
4 461 459 509 257
4 652 26 23 316
4 347 490 491 489
4 230 203 441 277
4 452 201 199 236
4 351 373 349 493
4 433 557 559 242
4 251 253 465 263
4 472 291 245 249
4 414 411 377 530
4 249 473 474 270
4 619 443 617 283
4 443 317 233 283
4 285 599 548 305
4 459 595 509 264
4 385 387 543 490
4 389 373 351 552
4 233 617 443 283
4 557 242 234 243
4 430 599 285 231
4 373 332 390 583
4 474 472 473 249
4 265 473 249 266
4 588 460 537 261
4 328 372 383 586
4 346 363 362 486
4 443 532 617 233
4 568 520 554 294
4 186 30 36 570
4 520 444 554 232
4 622 332 384 584
4 378 341 392 579
4 288 251 467 263
4 541 412 360 494
4 234 281 558 244
4 227 475 477 271
4 343 347 392 513
4 477 227 271 303
4 463 253 255 315
4 355 383 372 586
4 347 343 345 489
4 297 476 503 306
4 310 567 463 315
4 253 463 465 315
4 251 465 467 263
4 559 296 243 291
4 621 623 603 231
4 200 198 375 450
4 351 353 389 495
4 591 399 528 529
4 205 441 522 230
4 366 365 527 529
4 605 428 589 228
4 545 362 363 486
4 230 522 205 287
4 498 356 355 499
4 360 385 517 492
4 408 405 379 544
4 248 467 469 288
4 565 468 470 246
4 461 463 462 255
4 198 335 375 450
4 255 257 461 310
4 471 473 249 265
4 26 29 653 656
4 27 653 28 656
4 474 476 272 270
4 37 38 479 193
4 476 478 306 227
4 620 384 328 584
4 227 476 475 270
4 297 550 476 272
4 388 369 367 483
4 569 209 207 235
4 584 586 328 440
4 557 558 504 234
4 509 461 257 310
4 408 405 544 518
4 496 354 353 497
4 280 261 460 665
4 494 352 351 495
4 469 470 468 248
4 387 345 488 490
4 621 603 430 231
4 583 390 373 436
4 351 350 494 493
4 382 402 539 516
4 263 315 548 305
4 472 470 471 247
4 581 391 349 491
4 444 565 558 281
4 415 382 431 538
4 492 350 349 493
4 207 522 569 287
4 492 360 350 494
4 201 452 454 236
4 470 472 504 245
4 465 253 315 263
4 387 362 518 488
4 284 430 285 231
4 461 463 255 310
4 600 443 540 283
4 298 452 199 236
4 361 415 414 514
4 467 506 288 263
4 343 347 513 489
4 463 255 310 315
4 498 355 354 497
4 444 520 565 295
4 595 600 509 264
4 265 247 471 290
4 586 383 328 440
4 619 621 540 284
4 355 357 383 499
4 284 540 619 283
4 329 390 626 436
4 353 355 372 497
4 312 560 47 190
4 271 270 475 266
4 412 407 496 516
4 497 372 353 510
4 347 391 392 513
4 287 569 207 235
4 39 40 575 191
4 619 540 443 283
4 469 248 288 290
4 412 352 494 496
4 297 239 550 296
4 528 423 399 591
4 496 353 352 495
4 622 624 332 583
4 500 377 358 530
4 43 551 194 240
4 482 367 325 483
4 585 374 515 440
4 471 249 247 265
4 372 389 353 510
4 580 378 392 513
4 239 242 433 296
4 333 405 404 446
4 557 504 559 243
4 558 565 504 244
4 331 340 341 508
4 227 272 476 270
4 437 211 209 293
4 561 433 550 239
4 618 328 374 440
4 344 346 362 486
4 599 430 603 231
4 452 524 523 322
4 567 548 463 315
4 519 363 368 484
4 366 399 420 529
4 460 261 588 665
4 270 249 473 266
4 476 474 475 270
4 632 634 378 580
4 384 620 622 584
4 385 517 492 490
4 284 621 430 231
4 567 548 315 285
4 373 351 552 493
4 247 248 469 290
4 224 333 396 446
4 206 204 381 531
4 421 423 398 528
4 346 484 486 485
4 559 550 433 296
4 358 359 357 501
4 467 469 468 248
4 329 626 632 580
4 348 349 347 491
4 369 325 367 483
4 209 569 437 235
4 415 382 381 431
4 315 310 567 285
4 618 620 328 440
4 202 200 330 526
4 348 345 385 490
4 480 547 400 482
4 43 551 303 193
4 405 333 544 446
4 472 474 559 291
4 327 382 539 431
4 363 346 367 484
4 204 380 381 531
4 239 550 561 297
4 217 211 554 232
4 575 478 39 191
4 548 315 285 305
4 361 377 356 514
4 497 355 372 586
4 227 477 44 303
4 445 402 386 541
4 235 437 209 293
4 357 355 356 499
4 492 541 360 494
4 436 580 391 581
4 435 406 408 543
4 396 404 338 546
4 224 222 333 446
4 548 465 463 315
4 200 375 330 526
4 367 484 485 483
4 382 415 407 538
4 208 206 327 431
4 478 479 39 195
4 650 27 28 534
4 416 338 35 438
4 341 342 343 579
4 438 416 338 546
4 484 545 363 486
4 433 225 223 239
4 305 285 599 231
4 492 349 491 493
4 21 17 645 660
4 16 20 645 660
4 383 515 357 661
4 344 486 488 487
4 356 358 357 500
4 430 540 621 284
4 19 577 14 664
4 475 477 476 227
4 202 380 204 442
4 378 329 632 580
4 525 523 524 322
4 247 469 471 290
4 379 408 544 435
4 531 414 415 514
4 206 381 327 431
4 446 405 404 545
4 293 554 211 232
4 580 392 391 513
4 503 550 476 297
4 499 357 383 515
4 551 479 477 193
4 579 342 343 487
4 475 227 270 271
4 502 529 364 602
4 202 330 380 442
4 479 38 39 195
4 351 494 495 493
4 486 518 362 488
4 386 406 542 517
4 472 471 473 249
4 399 366 528 529
4 386 401 402 445
4 444 219 217 281
4 373 552 436 581
4 500 357 356 499
4 500 358 357 501
4 306 478 45 227
4 551 37 43 194
4 566 36 37 194
4 355 353 354 497
4 488 543 387 490
4 382 327 381 431
4 387 345 344 488
4 375 411 330 526
4 584 622 332 583
4 368 367 482 484
4 373 552 583 436
4 539 402 401 445
4 232 444 217 281
4 186 409 570 507
4 495 353 389 510
4 19 647 20 661
4 21 647 18 661
4 584 328 620 440
4 433 561 225 239
4 423 399 398 528
4 326 406 408 435
4 575 40 41 190
4 211 437 554 293
4 345 488 490 489
4 272 291 474 270
4 341 378 331 447
4 367 368 363 484
4 473 475 474 270
4 338 368 547 519
4 546 396 404 446
4 496 494 412 516
4 37 31 186 507
4 548 567 599 285
4 546 404 338 519
4 265 471 511 290
4 368 547 519 482
4 498 361 356 514
4 586 499 383 515
4 42 36 566 194
4 510 389 495 552
4 428 525 279 667
4 411 414 442 530
4 325 480 482 481
4 367 482 484 483
4 474 476 550 272
4 497 353 496 495
4 624 626 390 583
4 469 471 470 247
4 26 27 655 668
4 429 420 529 666
4 324 420 429 666
4 415 381 380 531
4 446 544 405 545
4 350 351 349 493
4 242 221 557 234
4 414 377 514 530
4 14 453 16 657
4 506 288 263 289
4 558 221 219 234
4 445 539 402 541
4 386 406 410 542
4 465 548 506 263
4 356 377 358 500
4 580 329 626 436
4 354 361 356 498
4 267 262 261 659
4 557 223 221 242
4 317 233 314 658
4 281 558 219 234
4 514 361 415 538
4 353 351 352 495
4 343 392 341 579
4 380 414 415 531
4 546 224 396 446
4 447 331 341 578
4 388 342 508 485
4 498 355 497 499
4 478 476 477 227
4 413 375 335 450
4 288 563 469 290
4 560 575 41 190
4 388 342 340 508
4 567 310 318 285
4 411 414 330 442
4 585 618 374 440
4 518 408 387 543
4 586 372 497 510
4 500 356 377 514
4 383 586 515 440
4 217 554 444 232
4 335 398 413 450
4 290 511 265 311
4 368 367 325 482
4 17 16 645 666
4 263 548 506 305
4 405 362 363 545
4 530 365 358 502
4 408 544 435 518
4 405 408 362 518
4 481 482 325 483
4 331 339 340 578
4 218 216 326 542
4 368 325 400 482
4 552 510 389 583
4 403 369 574 483
4 304 289 549 305
4 438 215 416 546
4 461 509 567 310
4 332 624 390 583
4 463 461 567 310
4 476 478 503 306
4 370 383 357 661
4 519 545 363 484
4 476 306 272 227
4 529 365 527 502
4 507 38 187 481
4 538 407 382 516
4 362 405 518 545
4 430 599 567 285
4 414 380 330 442
4 406 386 385 517
4 402 382 412 516
4 398 413 450 528
4 222 220 333 544
4 220 218 379 435
4 340 393 388 553
4 18 647 19 663
4 450 375 200 526
4 382 539 431 516
4 412 360 402 541
4 186 36 37 507
4 220 379 333 544
4 501 357 515 661
4 406 326 542 435
4 551 43 37 193
4 578 339 340 576
4 387 408 406 543
4 15 14 657 662
4 350 348 360 492
4 338 400 34 547
4 510 586 372 584
4 218 326 379 435
4 517 385 406 543
4 539 208 327 431
4 369 393 394 574
4 387 362 408 518
4 369 388 553 483
4 543 517 385 490
4 187 31 37 507
4 325 403 32 481
4 194 551 566 240
4 219 444 558 281
4 405 333 379 544
4 545 518 362 486
4 410 386 542 445
4 381 206 531 431
4 408 379 326 435
4 531 415 381 431
4 290 288 563 309
4 518 405 544 545
4 490 492 348 491
4 407 354 352 496
4 557 433 223 242
4 541 402 412 516
4 354 496 498 497
4 360 386 402 541
4 481 403 574 483
4 420 364 366 529
4 361 407 415 538
4 365 411 413 527
4 432 309 289 313
4 338 438 546 547
4 305 599 549 231
4 413 411 375 526
4 387 518 543 488
4 280 536 658 665
4 280 317 314 658
4 349 581 491 493
4 412 352 350 494
4 242 433 223 239
4 558 557 221 234
4 351 495 552 493
4 355 497 499 586
4 518 435 408 543
4 327 402 401 539
4 538 382 431 516
4 363 404 545 519
4 410 326 216 542
4 342 341 340 508
4 550 297 296 272
4 363 404 405 545
4 369 388 393 553
4 404 363 368 519
4 216 210 410 445
4 23 655 22 658
4 404 546 446 519
4 407 412 382 516
4 517 386 360 541
4 352 494 496 495
4 210 208 401 539
4 416 196 215 438
4 465 506 467 263
4 549 603 623 231
4 386 542 445 517
4 581 580 391 513
4 536 280 595 665
4 289 506 549 305
4 515 374 585 663
4 514 415 531 538
4 541 539 402 516
4 580 447 378 513
4 623 304 549 231
4 482 519 368 484
4 385 387 406 543
4 527 365 411 530
4 583 626 390 436
4 341 378 447 579
4 435 542 406 543
4 531 204 380 442
4 499 501 357 515
4 368 338 404 519
4 19 654 577 664
4 649 22 23 655
4 262 267 279 659
4 447 378 634 580
4 442 330 411 526
4 226 560 41 189
4 560 226 197 189
4 517 406 542 543
4 491 513 347 489
4 356 498 500 499
4 413 398 366 528
4 576 339 340 553
4 442 202 330 526
4 265 556 473 266
4 350 492 494 493
4 18 643 15 664
4 643 19 14 664
4 494 541 412 516
4 308 555 307 237
4 648 24 25 665
4 544 220 379 435
4 343 579 487 489
4 550 503 561 297
4 485 553 388 483
4 208 327 401 539
4 360 517 541 492
4 311 448 308 282
4 360 385 386 517
4 564 477 271 303
4 548 599 549 305
4 500 498 356 514
4 365 364 358 502
4 326 218 542 435
4 380 414 531 442
4 210 401 410 445
4 501 357 500 499
4 186 409 30 570
4 487 508 342 485
4 215 396 416 546
4 578 331 341 508
4 634 636 331 447
4 495 497 353 510
4 547 546 338 519
4 18 654 19 664
4 396 333 404 446
4 392 343 513 579
4 538 496 407 516
4 625 304 549 623
4 634 331 378 447
4 475 512 271 266
4 653 27 26 668
4 326 410 406 542
4 467 506 563 288
4 450 413 375 526
4 648 23 22 658
4 399 366 398 528
4 431 531 415 538
4 333 222 544 446
4 542 216 410 445
4 576 336 393 553
4 365 377 411 530
4 439 240 307 299
4 357 501 359 661
4 215 224 396 546
4 517 445 386 541
4 358 500 530 502
4 603 549 599 231
4 393 339 336 576
4 297 503 46 306
4 514 442 414 530
4 396 338 416 546
4 606 605 302 667
4 525 659 279 667
4 414 377 361 514
4 576 393 339 553
4 526 413 411 527
4 561 214 225 239
4 563 469 467 288
4 514 498 361 538
4 386 410 401 445
4 512 475 473 266
4 539 401 210 445
4 311 309 562 229
4 545 404 446 519
4 602 596 529 666
4 212 418 335 594
4 187 37 38 507
4 299 237 555 639
4 642 16 17 657
4 289 263 506 305
4 199 201 49 236
4 358 502 364 660
4 606 605 105 302
4 23 25 652 316
4 579 343 513 489
4 359 358 364 660
4 305 549 304 231
4 339 331 636 578
4 636 638 339 578
4 298 592 241 319
4 639 237 555 637
4 201 203 50 277
4 501 660 359 661
4 340 331 578 508
4 240 566 42 320
4 228 302 605 667
4 288 506 563 289
4 200 330 71 202
4 564 477 475 271
4 358 500 502 501
4 411 526 527 530
4 309 563 432 289
4 511 471 469 290
4 266 265 556 308
4 212 335 198 594
4 551 43 303 240
4 651 28 29 667
4 651 25 24 659
4 71 375 330 200
4 28 24 650 533
4 563 511 469 290
4 51 203 205 230
4 620 328 125 618
4 342 341 508 579
4 298 199 49 236
4 277 50 201 236
4 528 413 450 527
4 548 549 506 305
4 578 341 447 579
4 633 229 432 631
4 606 590 605 667
4 574 369 393 553
4 473 471 556 265
4 22 533 24 658
4 502 602 364 660
4 105 605 228 302
4 551 37 479 193
4 107 608 241 300
4 607 608 107 300
4 514 377 500 530
4 324 138 424 422
4 106 605 607 228
4 528 366 413 527
4 330 380 70 202
4 283 233 617 118
4 204 70 380 202
4 617 619 283 118
4 560 561 503 312
4 309 511 290 311
4 414 531 442 514
4 197 214 560 312
4 205 207 52 287
4 620 126 384 622
4 230 51 203 277
4 328 374 125 618
4 77 454 203 201
4 289 549 587 304
4 424 324 422 666
4 203 441 78 205
4 403 369 394 574
4 278 532 655 658
4 563 511 290 309
4 26 301 29 656
4 309 288 563 289
4 617 532 172 615
4 229 313 432 631
4 526 411 442 530
4 198 375 72 200
4 553 388 340 508
4 424 397 138 324
4 607 300 106 228
4 423 398 136 421
4 480 40 547 575
4 335 198 594 450
4 375 72 335 198
4 424 422 145 571
4 587 432 289 313
4 230 205 52 287
4 384 328 126 620
4 312 561 503 297
4 199 592 452 298
4 229 562 311 282
4 77 454 441 203
4 206 327 68 208
4 621 623 231 116
4 511 556 265 311
4 79 522 207 205
4 424 397 324 666
4 398 335 418 594
4 579 508 342 487
4 381 327 68 206
4 231 284 621 116
4 395 18 15 664
4 303 271 564 240
4 635 282 562 633
4 441 522 78 205
4 308 265 556 311
4 511 556 471 265
4 25 268 23 658
4 282 229 562 633
4 137 399 423 422
4 207 209 53 235
4 624 332 127 622
4 450 200 198 100
4 562 511 309 311
4 172 443 532 617
4 398 335 594 450
4 76 452 201 199
4 237 308 448 282
4 209 211 54 293
4 626 128 624 390
4 366 365 413 527
4 512 271 266 307
4 80 569 209 207
4 432 309 313 229
4 561 560 214 312
4 424 422 571 666
4 129 626 632 329
4 55 211 217 232
4 332 384 127 622
4 287 207 53 235
4 395 654 18 664
4 522 569 79 207
4 530 527 365 502
4 561 312 239 297
4 617 171 443 619
4 283 619 284 117
4 380 381 69 204
4 340 578 576 508
4 637 237 448 635
4 284 619 621 117
4 204 381 69 206
4 282 448 237 635
4 532 615 278 655
4 428 228 605 667
4 583 622 624 153
4 549 587 506 289
4 235 209 54 293
4 128 332 624 390
4 28 653 29 656
4 211 55 293 232
4 626 129 390 329
4 307 266 512 308
4 632 634 130 378
4 217 219 56 281
4 508 553 388 485
4 398 136 399 423
4 524 592 608 241
4 329 632 130 378
4 232 217 56 281
4 452 454 76 201
4 569 437 80 209
4 341 578 508 579
4 531 206 204 97
4 240 271 564 307
4 634 632 156 580
4 237 555 307 299
4 308 556 448 311
4 155 632 626 580
4 427 421 418 594
4 527 528 366 529
4 634 636 131 331
4 219 221 57 234
4 590 428 605 667
4 641 185 612 570
4 304 587 289 313
4 646 17 21 371
4 399 137 324 422
4 641 36 185 570
4 81 437 211 209
4 331 131 634 378
4 281 219 57 234
4 313 304 587 625
4 171 540 443 619
4 553 340 576 508
4 145 422 429 571
4 608 179 524 607
4 553 574 369 483
4 143 423 421 528
4 450 594 398 528
4 638 640 133 339
4 307 512 555 308
4 447 636 331 578
4 308 448 555 237
4 616 618 124 663
4 539 210 208 95
4 439 240 299 320
4 242 58 221 234
4 331 636 132 339
4 621 540 170 619
4 336 133 640 339
4 124 618 374 663
4 526 450 413 527
4 299 630 439 320
4 433 561 86 225
4 636 638 132 339
4 221 223 58 242
4 421 398 418 594
4 429 422 324 666
4 320 630 566 611
4 554 82 211 217
4 240 564 439 307
4 616 150 618 663
4 314 233 278 658
4 587 432 563 289
4 587 313 625 631
4 431 208 206 96
4 14 662 15 664
4 429 571 422 666
4 37 551 566 194
4 403 574 507 481
4 554 81 437 211
4 336 576 434 553
4 620 622 584 152
4 309 432 562 229
4 279 659 323 667
4 583 584 622 153
4 214 561 312 239
4 562 448 311 282
4 555 439 307 299
4 430 540 170 621
4 18 15 646 371
4 303 564 551 240
4 62 333 396 224
4 237 299 110 639
4 645 20 21 660
4 204 202 442 98
4 624 626 583 154
4 629 336 640 434
4 439 566 240 320
4 587 563 506 289
4 528 143 423 591
4 526 202 200 99
4 36 186 570 507
4 219 83 444 217
4 625 549 168 623
4 572 16 14 453
4 216 218 93 542
4 268 25 23 316
4 627 321 613 668
4 580 626 155 436
4 29 26 269 301
4 210 216 94 445
4 220 333 63 222
4 637 111 237 635
4 333 62 222 224
4 639 110 237 637
4 612 409 629 570
4 14 19 572 577
4 618 585 374 663
4 440 618 620 151
4 82 554 444 217
4 439 630 299 639
4 512 473 556 266
4 337 15 657 662
4 379 333 63 220
4 111 282 237 635
4 20 647 21 661
4 218 379 64 220
4 635 112 282 633
4 206 531 431 97
4 648 25 658 665
4 648 658 24 665
4 24 533 597 658
4 200 450 526 100
4 477 564 551 303
4 266 556 512 308
4 326 379 64 218
4 112 229 282 633
4 578 638 339 576
4 371 17 21 376
4 546 90 224 446
4 597 24 658 665
4 221 84 558 219
4 279 323 228 667
4 429 529 596 666
4 589 524 179 607
4 29 269 25 659
4 478 39 480 575
4 549 603 168 623
4 218 220 92 435
4 15 18 395 371
4 591 423 422 144
4 602 660 596 666
4 431 539 208 96
4 594 421 398 528
4 606 302 656 667
4 447 634 156 580
4 618 150 585 663
4 83 444 558 219
4 576 640 336 434
4 18 395 334 654
4 21 660 20 661
4 95 539 210 445
4 555 439 299 639
4 590 177 606 605
4 124 374 334 663
4 475 512 564 271
4 479 39 480 478
4 216 326 65 218
4 113 229 633 631
4 424 657 397 666
4 223 85 557 221
4 542 94 216 445
4 562 511 432 309
4 154 626 583 436
4 304 549 587 625
4 566 36 42 611
4 558 557 84 221
4 502 501 505 660
4 511 563 432 309
4 220 222 91 544
4 271 512 564 307
4 556 511 562 311
4 19 654 18 663
4 542 218 93 435
4 589 178 605 607
4 557 433 85 223
4 124 334 616 663
4 440 620 584 152
4 320 566 42 611
4 17 419 15 657
4 544 92 220 435
4 16 20 505 572
4 532 22 655 658
4 261 267 659 665
4 606 656 590 667
4 442 531 204 98
4 481 507 38 479
4 65 410 326 216
4 229 113 313 631
4 603 169 623 621
4 566 439 630 320
4 515 582 661 663
4 210 410 66 216
4 313 114 625 631
4 229 432 562 633
4 507 36 37 566
4 574 570 409 507
4 613 321 238 668
4 440 585 618 151
4 225 86 433 223
4 575 41 438 560
4 651 29 659 667
4 651 659 28 667
4 512 448 555 308
4 304 313 114 625
4 401 410 66 210
4 526 442 202 99
4 418 212 427 594
4 213 609 592 319
4 4 41 189 226
4 36 1 641 185
4 108 241 608 319
4 652 269 26 316
4 27 451 22 655
4 587 432 313 631
4 505 660 501 661
4 453 657 14 662
4 89 215 438 546
4 562 448 556 311
4 636 634 157 447
4 19 449 577 654
4 337 425 140 662
4 623 625 304 115
4 208 401 67 210
4 560 41 438 226
4 562 448 282 635
4 41 196 438 226
4 14 577 662 664
4 555 439 564 307
4 424 571 657 666
4 571 16 453 657
4 177 590 428 605
4 544 222 91 446
4 448 512 556 308
4 89 215 196 438
4 532 533 22 658
4 237 448 555 637
4 422 591 144 429
4 231 623 304 115
4 327 401 67 208
4 15 419 337 657
4 439 566 551 240
4 451 613 655 668
4 37 38 507 479
4 593 627 613 668
4 169 603 430 621
4 451 655 27 668
4 279 267 323 659
4 21 376 17 660
4 589 178 428 605
4 572 19 20 582
4 17 645 660 666
4 16 660 645 666
4 434 570 409 574
4 409 336 629 434
4 222 224 90 446
4 18 371 21 661
4 614 395 662 664
4 199 75 592 213
4 198 212 594 101
4 627 174 593 613
4 633 432 166 631
4 147 425 453 662
4 23 238 26 655
4 24 535 28 659
4 614 654 395 664
4 451 593 613 668
4 555 564 512 307
4 560 87 214 197
4 28 24 533 535
4 653 26 656 668
4 653 656 27 668
4 439 551 564 240
4 224 215 90 546
4 29 301 302 656
4 267 268 25 659
4 417 337 140 662
4 337 657 425 662
4 561 560 87 214
4 515 585 582 663
4 25 659 268 665
4 108 608 609 319
4 638 636 158 578
4 449 150 616 663
4 19 20 582 661
4 426 140 425 662
4 336 640 134 629
4 225 214 60 239
4 450 198 594 101
4 174 451 593 613
4 592 452 75 199
4 18 661 647 663
4 647 661 19 663
4 627 613 321 121
4 426 425 147 662
4 420 376 660 666
4 570 409 629 434
4 635 562 165 633
4 598 147 453 662
4 534 28 650 533
4 238 655 613 668
4 238 23 26 316
4 337 395 15 662
4 534 650 27 533
4 395 15 662 664
4 26 655 238 668
4 453 425 657 662
4 525 535 659 667
4 280 658 268 665
4 214 86 561 225
4 27 22 451 533
4 359 371 21 376
4 598 426 147 662
4 334 395 18 371
4 73 418 335 212
4 418 135 421 427
4 585 150 449 663
4 213 199 48 319
4 614 662 577 664
4 536 532 443 658
4 577 19 572 449
4 22 27 650 533
4 298 48 199 319
4 614 577 654 664
4 627 610 321 668
4 426 417 140 662
4 359 660 21 661
4 646 15 17 419
4 590 656 28 667
4 364 420 376 660
4 337 139 425 657
4 448 164 637 635
4 397 657 17 666
4 321 613 238 121
4 536 595 460 665
4 419 397 17 376
4 17 657 16 666
4 418 135 398 421
4 395 122 614 662
4 280 314 268 658
4 148 628 598 662
4 395 417 122 662
4 400 33 34 184
4 303 44 43 193
4 371 661 18 663
4 185 0 612 409
4 5 197 189 312
4 176 656 604 668
4 198 73 335 212
4 453 14 577 662
4 447 157 636 578
4 302 29 269 301
4 21 359 376 660
4 20 660 505 661
4 26 269 238 316
4 371 359 21 661
4 628 148 614 662
4 535 588 525 659
4 376 397 17 666
4 269 26 238 301
4 25 24 659 665
4 23 268 316 658
4 334 18 654 663
4 582 572 19 449
4 451 532 22 655
4 614 122 628 662
4 453 425 146 657
4 15 643 14 664
4 417 628 122 662
4 17 397 419 657
4 566 641 36 611
4 160 612 629 570
4 628 417 141 426
4 102 609 213 319
4 88 560 438 226
4 22 532 451 533
4 212 74 418 427
4 395 337 15 419
4 148 598 577 662
4 88 438 196 226
4 577 614 148 662
4 139 424 425 657
4 181 627 610 321
4 628 417 11 141
4 213 6 102 319
4 424 146 425 657
4 141 417 11 426
4 609 102 6 319
4 418 7 74 212
4 640 638 159 576
4 418 74 7 427
4 103 610 604 668
4 639 555 163 637
4 30 0 185 409
4 189 47 5 312
4 507 570 36 566
4 616 334 654 663
4 576 159 640 434
4 181 10 627 321
4 44 45 195 227
4 33 32 188 325
4 123 616 334 654
4 505 582 20 661
4 16 571 596 666
4 610 10 181 321
4 409 336 134 629
4 312 60 214 239
4 224 396 61 215
4 299 630 109 639
4 109 630 299 320
4 396 416 61 215
4 535 590 28 667
4 652 25 269 316
4 370 357 359 661
4 598 628 12 141
4 578 158 638 576
4 630 162 566 611
4 35 34 183 338
4 42 43 194 240
4 20 505 572 582
4 502 505 602 660
4 572 571 16 453
4 551 507 37 566
4 87 560 226 197
4 395 614 123 654
4 29 656 302 667
4 103 321 610 668
4 141 598 628 426
4 590 534 28 656
4 534 27 28 656
4 525 428 535 667
4 267 25 269 659
4 549 168 587 625
4 269 26 29 652
4 439 555 163 639
4 334 371 18 663
4 334 395 123 654
4 419 15 395 371
4 280 268 261 665
4 419 646 15 371
4 301 103 604 668
4 371 419 17 376
4 141 12 598 426
4 515 582 501 661
4 17 646 419 371
4 16 657 571 666
4 29 28 656 667
4 479 507 37 551
4 269 25 267 268
4 417 426 628 662
4 628 426 598 662
4 238 23 316 655
4 625 167 587 631
4 104 604 606 656
4 534 656 176 668
4 592 179 524 608
4 630 439 163 639
4 421 594 143 528
4 159 629 640 434
4 627 593 610 668
4 268 658 25 665
4 409 134 612 629
4 197 60 214 312
4 337 397 139 657
4 572 20 19 644
4 166 562 432 633
4 448 562 165 635
4 577 149 614 654
4 139 397 424 657
4 301 321 103 668
4 24 597 535 659
4 570 641 36 566
4 571 16 596 572
4 596 660 16 666
4 269 29 302 667
4 104 301 604 656
4 453 14 572 577
4 420 324 376 666
4 593 176 604 668
4 177 428 178 605
4 86 85 433 223
4 533 534 28 535
4 590 28 534 535
4 449 654 19 663
4 146 453 147 425
4 140 337 139 425
4 108 608 241 107
4 557 85 84 221
4 164 555 448 637
4 91 92 220 544
4 454 77 76 201
4 104 606 105 302
4 441 78 77 203
4 534 27 451 533
4 398 135 136 421
4 93 94 216 542
4 522 79 78 205
4 301 656 26 668
4 302 104 606 656
4 70 71 330 202
4 118 233 617 119
4 82 81 554 211
4 616 654 449 663
4 9 180 592 609
4 67 68 327 208
4 115 231 623 116
4 58 57 221 234
4 636 132 131 331
4 424 571 146 657
4 444 83 82 217
4 536 597 533 658
4 437 81 80 209
4 96 539 208 95
4 69 70 380 204
4 117 283 619 118
4 84 83 558 219
4 614 149 616 654
4 569 80 79 207
4 609 592 9 213
4 57 56 219 281
4 131 130 634 378
4 133 132 638 339
4 223 59 58 242
4 53 52 207 287
4 126 127 384 622
4 101 450 198 100
4 174 173 451 613
4 56 55 217 232
4 632 130 129 329
4 427 212 8 594
4 610 13 593 627
4 570 629 160 434
4 594 8 427 142
4 610 13 175 593
4 170 169 430 621
4 532 173 172 615
4 452 76 75 199
4 218 92 93 435
4 505 596 16 572
4 125 126 328 620
4 205 52 51 230
4 87 86 561 214
4 55 54 211 293
4 129 128 626 390
4 566 439 162 630
4 532 536 533 658
4 47 46 312 190
4 409 30 31 186
4 597 533 24 535
4 98 531 204 97
4 45 46 191 306
4 187 32 31 403
4 60 59 225 239
4 640 134 133 336
4 54 53 209 235
4 127 128 332 624
4 449 616 149 654
4 215 89 90 546
4 90 91 222 446
4 124 125 374 618
4 51 50 203 277
4 593 13 174 627
4 594 212 8 101
4 196 89 438 88
4 49 48 199 298
4 122 123 395 614
4 50 49 201 236
4 123 124 334 616
4 592 75 9 213
4 614 616 123 654
4 210 94 95 445
4 160 641 612 570
4 24 597 659 665
4 137 399 136 423
4 261 268 267 665
4 300 107 607 106
4 424 397 139 138
4 641 566 161 611
4 597 658 536 665
4 138 324 137 422
4 228 106 605 105
4 604 104 103 301
4 370 334 374 663
4 453 146 571 657
4 588 659 597 665
4 323 302 228 667
4 173 615 532 655
4 460 588 597 665
4 449 149 577 654
4 140 11 417 426
4 108 609 6 319
4 626 154 155 436
4 451 613 173 655
4 571 145 424 146
4 116 284 621 117
4 68 69 381 206
4 604 176 606 656
4 97 431 206 96
4 62 63 333 222
4 110 111 237 637
4 627 610 13 181
4 212 8 74 427
4 429 144 422 145
4 316 314 278 658
4 375 71 72 200
4 172 171 443 617
4 9 102 609 213
4 364 376 359 660
4 432 587 167 631
4 301 26 238 668
4 103 10 610 321
4 460 597 536 665
4 151 585 618 150
4 534 176 593 668
4 120 238 613 121
4 134 612 0 409
4 197 5 60 312
4 593 451 27 668
4 268 269 25 316
4 606 176 590 656
4 99 442 202 98
4 153 584 622 152
4 268 659 267 665
4 572 19 14 644
4 88 87 560 226
4 196 61 416 215
4 320 109 630 611
4 155 156 632 580
4 582 19 661 663
4 302 301 104 656
4 397 376 324 666
4 432 167 166 631
4 604 656 301 668
4 173 532 451 655
4 376 17 660 666
4 135 418 7 427
4 613 238 120 655
4 149 577 614 148
4 152 440 620 151
4 278 615 120 655
4 120 615 278 119
4 112 282 111 635
4 63 64 379 220
4 171 170 540 619
4 582 449 19 663
4 566 570 641 161
4 371 370 359 661
4 149 616 449 150
4 100 526 200 99
4 156 157 634 447
4 593 175 604 176
4 421 594 142 143
4 157 158 636 578
4 534 590 176 656
4 148 628 12 598
4 625 114 304 115
4 66 67 401 210
4 534 593 27 668
4 535 28 659 667
4 592 180 179 608
4 27 451 593 534
4 177 606 176 590
4 615 173 613 655
4 334 370 371 663
4 153 624 583 154
4 73 7 418 212
4 3 61 416 196
4 2 109 320 611
4 178 589 179 607
4 501 582 505 661
4 64 65 326 218
4 112 113 229 633
4 555 164 163 637
4 604 610 175 593
4 594 427 421 142
4 166 165 562 633
4 591 143 423 144
4 608 592 180 609
4 613 120 615 655
4 159 160 629 434
4 278 120 238 655
4 370 661 371 663
4 72 73 335 198
4 164 448 165 635
4 158 159 638 576
4 269 29 25 652
4 396 61 62 224
4 109 110 299 639
4 417 11 122 628
4 48 6 213 319
4 113 114 313 631
4 65 66 410 216
4 397 337 419 657
4 604 610 593 668
4 321 10 627 121
4 162 161 566 611
4 439 163 162 630
4 650 24 22 533
4 534 27 656 668
4 603 169 168 623
4 12 147 598 426
4 337 417 395 662
4 267 269 323 659
4 570 160 641 161
4 238 316 278 655
4 268 314 316 658
4 590 535 428 667
4 646 21 18 371
4 596 571 429 666
4 577 598 453 662
4 16 20 572 644
4 582 585 449 663
4 168 167 587 625
4 269 302 323 667
4 301 238 321 668
4 597 588 535 659
4 185 612 1 641
4 197 226 4 189
4 602 505 596 660
4 572 14 16 644
4 1 2 192 611
4 182 4 3 196
4 612 1 0 185
4 4 5 197 189
4 457 286 258 456
4 258 286 457 260
4 292 462 254 256
4 292 254 462 521
4 275 458 256 258
4 275 256 458 573
4 457 259 258 260
4 258 259 457 459
4 403 483 325 369
4 325 483 403 481
4 567 318 509 601
4 509 318 567 310
4 196 35 3 182
4 196 3 35 416
4 611 42 2 192
4 611 2 42 320
4 40 39 480 184
4 40 480 39 575
4 536 658 317 280
4 536 595 317 600
4 317 595 536 280
4 493 373 581 552
4 493 581 373 349
4 409 507 394 574
4 318 509 600 264
4 318 600 509 601
4 354 538 496 407
4 496 538 354 498
4 659 537 261 588
4 659 261 537 262
4 454 274 452 523
4 452 274 454 236
4 39 38 480 188
4 39 480 38 479
4 481 480 38 188
4 481 38 480 479
4 601 284 285 318
4 285 284 601 430
4 589 279 322 300
4 322 279 589 525
4 589 524 322 525
4 279 523 262 525
4 279 262 523 274
4 537 262 523 525
4 537 523 262 274
4 41 40 438 183
4 41 438 40 575
4 547 438 40 183
4 547 40 438 575
4 660 358 501 359
4 660 501 358 502
4 189 47 560 41
4 391 436 373 390
4 373 436 391 581
4 389 584 372 384
4 372 584 389 510
4 601 283 284 318
4 284 283 601 540
4 391 491 513 347
4 513 491 391 581
4 322 241 592 524
4 592 241 322 298
4 592 452 322 524
4 322 452 592 298
4 452 274 322 523
4 322 274 452 298
4 583 389 584 510
4 583 584 389 332
4 319 199 592 213
4 319 592 199 298
4 513 378 579 447
4 513 579 378 392
4 409 31 507 186
4 409 507 31 394
4 312 46 503 190
4 312 503 46 297
4 373 583 389 332
4 389 583 373 552
4 553 336 574 434
4 553 574 336 393
4 394 336 574 393
4 35 438 196 416
4 196 438 35 41
4 661 383 663 370
4 661 663 383 515
4 374 663 383 370
4 374 383 663 515
4 570 185 30 36
4 223 239 59 242
4 59 239 223 225
4 339 640 576 638
4 339 576 640 336
4 615 233 119 617
4 119 233 615 278
4 505 16 660 20
4 505 660 16 596
4 394 507 403 574
4 403 507 394 31
4 319 608 592 241
4 319 592 608 609
4 312 189 560 197
4 312 560 189 47
4 409 185 570 612
4 409 570 185 30
4 316 655 658 278
4 658 655 316 23
4 41 4 196 226
4 41 196 4 182
4 1 36 611 192
4 1 611 36 641
4 667 269 659 323
4 667 659 269 29
4 317 536 443 658
4 443 536 317 600
4 322 589 607 524
4 607 589 322 300
4 322 607 608 524
4 608 607 322 300
4 322 608 241 524
4 241 608 322 300
4 336 574 409 394
4 336 409 574 434

CELL_TYPES 3389
1
1
1
1
1
1
1
1
1
1
1
1
1
1
1
1
1
1
1
1
1
1
1
1
1
1
1
1
1
1
3
3
3
3
3
3
3
3
3
3
3
3
3
3
3
3
3
3
3
3
3
3
3
3
3
3
3
3
3
3
3
3
3
3
3
3
3
3
3
3
3
3
3
3
3
3
3
3
3
3
3
3
3
3
3
3
3
3
3
3
3
3
3
3
3
3
3
3
3
3
3
3
3
3
3
3
3
3
3
3
3
3
3
3
3
3
3
3
3
3
3
3
3
3
3
3
3
3
3
3
3
3
3
3
3
3
3
3
3
3
3
3
3
3
3
3
3
3
3
3
3
3
3
3
3
3
3
3
3
3
3
3
3
3
3
3
3
3
3
3
3
3
3
3
3
3
3
3
3
3
3
3
3
3
3
3
3
3
3
3
3
3
3
3
3
3
3
3
3
3
3
3
3
3
3
3
3
3
3
3
3
3
3
3
3
3
3
3
3
3
3
3
3
3
3
3
3
5
5
5
5
5
5
5
5
5
5
5
5
5
5
5
5
5
5
5
5
5
5
5
5
5
5
5
5
5
5
5
5
5
5
5
5
5
5
5
5
5
5
5
5
5
5
5
5
5
5
5
5
5
5
5
5
5
5
5
5
5
5
5
5
5
5
5
5
5
5
5
5
5
5
5
5
5
5
5
5
5
5
5
5
5
5
5
5
5
5
5
5
5
5
5
5
5
5
5
5
5
5
5
5
5
5
5
5
5
5
5
5
5
5
5
5
5
5
5
5
5
5
5
5
5
5
5
5
5
5
5
5
5
5
5
5
5
5
5
5
5
5
5
5
5
5
5
5
5
5
5
5
5
5
5
5
5
5
5
5
5
5
5
5
5
5
5
5
5
5
5
5
5
5
5
5
5
5
5
5
5
5
5
5
5
5
5
5
5
5
5
5
5
5
5
5
5
5
5
5
5
5
5
5
5
5
5
5
5
5
5
5
5
5
5
5
5
5
5
5
5
5
5
5
5
5
5
5
5
5
5
5
5
5
5
5
5
5
5
5
5
5
5
5
5
5
5
5
5
5
5
5
5
5
5
5
5
5
5
5
5
5
5
5
5
5
5
5
5
5
5
5
5
5
5
5
5
5
5
5
5
5
5
5
5
5
5
5
5
5
5
5
5
5
5
5
5
5
5
5
5
5
5
5
5
5
5
5
5
5
5
5
5
5
5
5
5
5
5
5
5
5
5
5
5
5
5
5
5
5
5
5
5
5
5
5
5
5
5
5
5
5
5
5
5
5
5
5
5
5
5
5
5
5
5
5
5
5
5
5
5
5
5
5
5
5
5
5
5
5
5
5
5
5
5
5
5
5
5
5
5
5
5
5
5
5
5
5
5
5
5
5
5
5
5
5
5
5
5
5
5
5
5
5
5
5
5
5
5
5
5
5
5
5
5
5
5
5
5
5
5
5
5
5
5
5
5
5
5
5
5
5
5
5
5
5
5
5
5
5
5
5
5
5
5
5
5
5
5
5
5
5
5
5
5
5
5
5
5
5
5
5
5
5
5
5
5
5
5
5
5
5
5
5
5
5
5
5
5
5
5
5
5
5
5
5
5
5
5
5
5
5
5
5
5
5
5
5
5
5
5
5
5
5
5
5
5
5
5
5
5
5
5
5
5
5
5
5
5
5
5
5
5
5
5
5
5
5
5
5
5
5
5
5
5
5
5
5
5
5
5
5
5
5
5
5
5
5
5
5
5
5
5
5
5
5
5
5
5
5
5
5
5
5
5
5
5
5
5
5
5
5
5
5
5
5
5
5
5
5
5
5
5
5
5
5
5
5
5
5
5
5
5
5
5
5
5
5
5
5
5
5
5
5
5
5
5
5
5
5
5
5
5
5
5
5
5
5
5
5
5
5
5
5
5
5
5
5
5
5
5
5
5
5
5
5
5
5
5
5
5
5
5
5
5
5
5
5
5
5
5
5
5
5
5
5
5
5
5
5
5
5
5
5
5
5
5
5
5
5
5
5
5
5
5
5
5
5
5
5
5
5
5
5
5
5
5
5
5
5
5
5
5
5
5
5
5
5
5
5
5
5
5
5
5
5
5
5
5
5
5
5
5
5
5
5
5
5
5
5
5
5
5
5
5
5
5
5
5
5
5
5
5
5
5
5
5
5
5
5
5
5
5
5
5
5
5
5
5
5
5
5
5
5
5
5
5
5
5
5
5
5
5
5
5
5
5
5
5
5
5
5
5
5
5
5
5
5
5
5
5
5
5
5
5
5
5
5
5
5
5
5
5
5
5
5
5
5
5
5
5
5
5
5
5
5
5
5
5
5
5
5
5
5
5
5
5
5
5
5
5
5
5
5
5
5
5
5
5
5
5
5
5
5
5
5
5
5
5
5
5
5
5
5
5
5
5
5
5
5
5
5
5
5
5
5
5
5
5
5
5
5
5
5
5
5
5
5
5
5
5
5
5
5
5
5
5
5
5
5
5
5
5
5
5
5
5
5
5
5
5
5
5
5
5
5
5
5
5
5
5
5
5
5
5
5
5
5
5
5
5
5
5
5
5
5
5
5
5
5
5
5
5
5
5
5
5
5
5
5
5
5
5
5
5
5
5
5
5
5
5
5
5
5
5
5
5
5
5
5
5
5
5
5
5
5
5
5
5
5
5
5
5
5
5
5
5
5
5
5
5
5
5
5
5
5
5
5
5
5
5
5
5
5
5
5
5
5
5
5
5
5
5
5
5
5
5
5
5
5
5
5
5
5
5
5
5
5
5
5
5
5
5
5
5
5
5
5
5
5
5
5
5
5
5
5
5
5
5
5
5
5
5
5
5
5
5
5
5
5
5
5
5
5
5
5
5
5
5
5
5
5
5
5
5
5
5
5
5
5
5
5
5
5
5
5
5
5
5
5
5
5
5
5
5
5
5
5
5
5
5
5
5
5
5
5
5
5
5
5
5
5
5
5
5
5
5
5
5
5
5
5
5
5
5
5
5
5
5
5
5
5
5
5
5
5
5
5
5
5
5
5
5
5
5
5
5
5
5
5
5
5
5
5
5
5
5
5
5
5
5
5
5
5
5
5
5
5
5
5
5
5
5
5
5
5
5
5
5
5
5
5
5
5
5
5
5
5
5
5
5
5
5
5
5
5
5
5
5
5
5
5
5
5
5
5
5
5
5
5
5
5
5
5
5
5
5
5
5
5
5
5
5
5
5
5
5
5
5
5
5
5
5
5
5
5
5
5
5
5
5
5
5
5
5
5
5
5
5
5
5
5
5
5
5
5
5
5
5
5
5
5
5
5
5
5
5
5
5
5
5
5
5
5
5
5
5
5
5
5
5
5
5
5
5
5
5
5
5
5
5
5
5
5
5
5
5
5
5
5
5
5
5
5
5
5
5
5
5
5
5
5
5
5
5
5
10
10
10
10
10
10
10
10
10
10
10
10
10
10
10
10
10
10
10
10
10
10
10
10
10
10
10
10
10
10
10
10
10
10
10
10
10
10
10
10
10
10
10
10
10
10
10
10
10
10
10
10
10
10
10
10
10
10
10
10
10
10
10
10
10
10
10
10
10
10
10
10
10
10
10
10
10
10
10
10
10
10
10
10
10
10
10
10
10
10
10
10
10
10
10
10
10
10
10
10
10
10
10
10
10
10
10
10
10
10
10
10
10
10
10
10
10
10
10
10
10
10
10
10
10
10
10
10
10
10
10
10
10
10
10
10
10
10
10
10
10
10
10
10
10
10
10
10
10
10
10
10
10
10
10
10
10
10
10
10
10
10
10
10
10
10
10
10
10
10
10
10
10
10
10
10
10
10
10
10
10
10
10
10
10
10
10
10
10
10
10
10
10
10
10
10
10
10
10
10
10
10
10
10
10
10
10
10
10
10
10
10
10
10
10
10
10
10
10
10
10
10
10
10
10
10
10
10
10
10
10
10
10
10
10
10
10
10
10
10
10
10
10
10
10
10
10
10
10
10
10
10
10
10
10
10
10
10
10
10
10
10
10
10
10
10
10
10
10
10
10
10
10
10
10
10
10
10
10
10
10
10
10
10
10
10
10
10
10
10
10
10
10
10
10
10
10
10
10
10
10
10
10
10
10
10
10
10
10
10
10
10
10
10
10
10
10
10
10
10
10
10
10
10
10
10
10
10
10
10
10
10
10
10
10
10
10
10
10
10
10
10
10
10
10
10
10
10
10
10
10
10
10
10
10
10
10
10
10
10
10
10
10
10
10
10
10
10
10
10
10
10
10
10
10
10
10
10
10
10
10
10
10
10
10
10
10
10
10
10
10
10
10
10
10
10
10
10
10
10
10
10
10
10
10
10
10
10
10
10
10
10
10
10
10
10
10
10
10
10
10
10
10
10
10
10
10
10
10
10
10
10
10
10
10
10
10
10
10
10
10
10
10
10
10
10
10
10
10
10
10
10
10
10
10
10
10
10
10
10
10
10
10
10
10
10
10
10
10
10
10
10
10
10
10
10
10
10
10
10
10
10
10
10
10
10
10
10
10
10
10
10
10
10
10
10
10
10
10
10
10
10
10
10
10
10
10
10
10
10
10
10
10
10
10
10
10
10
10
10
10
10
10
10
10
10
10
10
10
10
10
10
10
10
10
10
10
10
10
10
10
10
10
10
10
10
10
10
10
10
10
10
10
10
10
10
10
10
10
10
10
10
10
10
10
10
10
10
10
10
10
10
10
10
10
10
10
10
10
10
10
10
10
10
10
10
10
10
10
10
10
10
10
10
10
10
10
10
10
10
10
10
10
10
10
10
10
10
10
10
10
10
10
10
10
10
10
10
10
10
10
10
10
10
10
10
10
10
10
10
10
10
10
10
10
10
10
10
10
10
10
10
10
10
10
10
10
10
10
10
10
10
10
10
10
10
10
10
10
10
10
10
10
10
10
10
10
10
10
10
10
10
10
10
10
10
10
10
10
10
10
10
10
10
10
10
10
10
10
10
10
10
10
10
10
10
10
10
10
10
10
10
10
10
10
10
10
10
10
10
10
10
10
10
10
10
10
10
10
10
10
10
10
10
10
10
10
10
10
10
10
10
10
10
10
10
10
10
10
10
10
10
10
10
10
10
10
10
10
10
10
10
10
10
10
10
10
10
10
10
10
10
10
10
10
10
10
10
10
10
10
10
10
10
10
10
10
10
10
10
10
10
10
10
10
10
10
10
10
10
10
10
10
10
10
10
10
10
10
10
10
10
10
10
10
10
10
10
10
10
10
10
10
10
10
10
10
10
10
10
10
10
10
10
10
10
10
10
10
10
10
10
10
10
10
10
10
10
10
10
10
10
10
10
10
10
10
10
10
10
10
10
10
10
10
10
10
10
10
10
10
10
10
10
10
10
10
10
10
10
10
10
10
10
10
10
10
10
10
10
10
10
10
10
10
10
10
10
10
10
10
10
10
10
10
10
10
10
10
10
10
10
10
10
10
10
10
10
10
10
10
10
10
10
10
10
10
10
10
10
10
10
10
10
10
10
10
10
10
10
10
10
10
10
10
10
10
10
10
10
10
10
10
10
10
10
10
10
10
10
10
10
10
10
10
10
10
10
10
10
10
10
10
10
10
10
10
10
10
10
10
10
10
10
10
10
10
10
10
10
10
10
10
10
10
10
10
10
10
10
10
10
10
10
10
10
10
10
10
10
10
10
10
10
10
10
10
10
10
10
10
10
10
10
10
10
10
10
10
10
10
10
10
10
10
10
10
10
10
10
10
10
10
10
10
10
10
10
10
10
10
10
10
10
10
10
10
10
10
10
10
10
10
10
10
10
10
10
10
10
10
10
10
10
10
10
10
10
10
10
10
10
10
10
10
10
10
10
10
10
10
10
10
10
10
10
10
10
10
10
10
10
10
10
10
10
10
10
10
10
10
10
10
10
10
10
10
10
10
10
10
10
10
10
10
10
10
10
10
10
10
10
10
10
10
10
10
10
10
10
10
10
10
10
10
10
10
10
10
10
10
10
10
10
10
10
10
10
10
10
10
10
10
10
10
10
10
10
10
10
10
10
10
10
10
10
10
10
10
10
10
10
10
10
10
10
10
10
10
10
10
10
10
10
10
10
10
10
10
10
10
10
10
10
10
10
10
10
10
10
10
10
10
10
10
10
10
10
10
10
10
10
10
10
10
10
10
10
10
10
10
10
10
10
10
10
10
10
10
10
10
10
10
10
10
10
10
10
10
10
10
10
10
10
10
10
10
10
10
10
10
10
10
10
10
10
10
10
10
10
10
10
10
10
10
10
10
10
10
10
10
10
10
10
10
10
10
10
10
10
10
10
10
10
10
10
10
10
10
10
10
10
10
10
10
10
10
10
10
10
10
10
10
10
10
10
10
10
10
10
10
10
10
10
10
10
10
10
10
10
10
10
10
10
10
10
10
10
10
10
10
10
10
10
10
10
10
10
10
10
10
10
10
10
10
10
10
10
10
10
10
10
10
10
10
10
10
10
10
10
10
10
10
10
10
10
10
10
10
10
10
10
10
10
10
10
10
10
10
10
10
10
10
10
10
10
10
10
10
10
10
10
10
10
10
10
10
10
10
10
10
10
10
10
10
10
10
10
10
10
10
10
10
10
10
10
10
10
10
10
10
10
10
10
10
10
10
10
10
10
10
10
10
10
10
10
10
10
10
10
10
10
10
10
10
10
10
10
10
10
10
10
10
10
10
10
10
10
10
10
10
10
10
10
10
10
10
10
10
10
10
10
10
10
10
10
10
10
10
10
10
10
10
10
10
10
10
10
10
10
10
10
10
10
10
10
10
10
10
10
10
10
10
10
10
10
10
10
10
10
10
10
10
10
10
10
10
10
10
10
10
10
10
10
10
10
10
10
10
10
10
10
10
10
10
10
10
10
10
10
10
10
10
10
10
10
10
10
10
10
10
10
10
10
10
10
10
10
10
10
10
10
10
10
10
10
10
10
10
10
10
10
10
10
10
10
10
10
10
10
10
10
10
10
10
10
10
10
10
10
10
10
10
10
10
10
10
10
10
10
10
10
10
10
10
10
10
10
10
10
10
10
10
10
10
10
10
10
10
10
10
10
10
10
10
10
10
10
10
10
10
10
10
10
10
10
10
10
10
10
10
10
10
10
10
10
10
10
10
10
10
10
10
10
10
10
10
10
10
10
10
10
10
10
10
10
10
10
10
10
10
10
10
10
10
10
10
10
10
10
10
10
10
10
10
10
10
10
10
10
10
10
10
10
10
10
10
10
10
10
10
10
10
10
10
10
10
10
10
10
10
10
10
10
10
10
10
10
10
10
10
10
10
10
10
10
10
10
10
10
10
10
10
10
10
10
10
10
10
10
10
10
10
10
10
10
10
10
10
10
10
10
10
10
10
10
10
10
10
10
10
10
10
10
10
10
10
10
10
10
10
10
10
10
10
10
10
10
10
10
10
10
10
10
10
10
10
10
10
10
10
10
10
10
10
10
10
10
10
10
10
10
10
10
10
10
10
10
10
10
10
10
10
10
10
10
10
10
10
10
10
10
10
10
10
10
10
10
10
10
10
10
10
10
10
10
10
10
10
10
10
10
10
10
10
10
10
10
10
10
10
10
10
10
10
10
10
10
10
10
10
10
10
10
10
10
